<svg width="691" height="105" viewBox="0 0 691 105" fill="none" xmlns="http://www.w3.org/2000/svg" fill-opacity="0.4">
<path d="M659.256 -54.9254C650.861 -47.8319 642.219 -41.0172 633.196 -34.621C630.465 -32.6988 627.689 -30.801 624.798 -28.9976C626.648 -31.7625 628.587 -34.4119 630.596 -37.0358C644.507 -55.2318 660.332 -72.0026 676.947 -88.0017C682.271 -92.9439 690.793 -87.0468 687.34 -80.7261C674.566 -58.5796 660.816 -36.7235 643.869 -17.1318C648.078 -30.0545 653.353 -42.5936 659.255 -54.9032L659.256 -54.9254ZM598.149 -37.6296C595.337 -53.2615 593.952 -69.139 593.084 -84.9701C589.301 -73.6089 585.147 -62.354 580.484 -51.3232C579.028 -47.9164 577.549 -44.5107 575.883 -41.1359C576.392 -48.5289 577.367 -55.811 578.46 -63.11C581.211 -81.2008 585.064 -99.1735 589.498 -116.941L592.256 -127.57C592.948 -130.3 595.565 -132.294 598.675 -132.239C602.281 -132.183 605.169 -129.376 605.105 -125.971C605.015 -119.45 604.92 -110.3 604.645 -103.877C603.758 -81.7349 602.229 -59.4671 598.125 -37.6307L598.149 -37.6296ZM512.487 -122.322C528.016 -94.1169 543.054 -65.4894 555.669 -35.9945C541.845 -54.1869 529.12 -73.1968 516.852 -92.4082C522.048 -76.3093 526.909 -60.1145 531.225 -43.8782C532.591 -38.759 533.862 -33.622 535.036 -28.4449C530.027 -37.8981 525.451 -47.5094 520.971 -57.1831C509.896 -81.2612 499.789 -105.851 490.297 -130.502L484.69 -145.35C483.618 -148.162 484.851 -151.356 487.726 -152.826C490.89 -154.439 494.848 -153.32 496.571 -150.322C501.307 -142.084 507.964 -130.55 512.464 -122.323L512.487 -122.322ZM414.459 -95.627C406.831 -103.019 391.653 -117.956 384.124 -125.455C381.869 -127.676 381.678 -131.181 383.772 -133.601C386.04 -136.235 390.161 -136.6 392.938 -134.444C409.172 -121.931 426.947 -108.076 442.767 -95.27C470.156 -73.1068 497.27 -50.6 523.048 -26.7522C497.524 -42.8599 472.828 -60.0649 448.409 -77.6135C464.526 -60.5619 480.302 -43.2588 495.55 -25.7575C500.208 -20.4187 504.768 -15.0175 509.278 -9.55187C498.214 -18.6182 487.495 -28.0248 476.827 -37.4959C455.677 -56.3848 434.796 -75.974 414.459 -95.627ZM289.053 -71.5179L260.328 -84.723C257.303 -86.1107 255.856 -89.4964 257.057 -92.4919C258.336 -95.6619 262.111 -97.2238 265.497 -95.9975C299.192 -83.6752 337.744 -69.2787 371.06 -56.4172C416.026 -38.9834 461.161 -21.0963 505.313 -1.87401C461.372 -14.984 417.567 -29.4908 374.155 -44.3579C409.323 -27.1788 444.259 -9.58718 478.743 8.58479C483.392 11.0724 488.042 13.5156 492.664 16.0688C484.207 12.8252 471.638 7.72026 463.189 4.29886C404.516 -19.6514 346.603 -45.2367 289.051 -71.4734L289.053 -71.5179ZM487.706 45.1262C439.116 39.1946 390.75 31.9817 342.424 24.4364C307.77 19.0407 268.642 12.5018 233.919 6.56835L197.821 0.281504C194.499 -0.295955 192.135 -3.21205 192.474 -6.44802C192.843 -9.83846 196.046 -12.2732 199.637 -11.906C296.765 -1.9606 394.957 8.94734 491.396 23.5602C438.855 20.9418 386.061 17.1757 333.344 12.7673C361.111 18.155 388.8 23.695 416.105 29.3953C439.996 34.4693 463.912 39.4999 487.732 45.0829L487.706 45.1262ZM487.524 74.94C429.353 82.3497 371.053 88.4617 312.673 94.2582C270.807 98.4163 223.417 102.696 181.315 106.354L137.49 110.042C134.081 110.329 130.956 108.046 130.422 104.814C129.871 101.448 132.328 98.31 135.889 97.8072C251.588 81.6215 368.742 66.1047 485.025 54.6232C425.721 65.5884 365.849 75.5918 305.863 84.9886C337.258 82.8609 368.597 80.9089 399.573 79.1626C428.866 77.5832 458.185 75.9827 487.524 74.94ZM498.724 105.461C433.733 129.703 368.256 152.742 302.675 175.465C255.623 191.766 202.241 209.799 154.782 225.702L105.366 242.138C102.132 243.212 98.4992 241.707 97.1549 238.66C95.7677 235.522 97.3265 231.92 100.665 230.627C229.186 180.582 360.283 130.434 490.556 84.8137C422.25 114.426 352.779 143.226 283.075 171.437C321.637 159.197 360.311 147.095 398.804 135.319C432.078 125.216 465.308 115.067 498.771 105.463L498.724 105.461ZM131.841 370.295C256.277 283.802 383.463 196.5 510.757 113.993C449.945 159.454 387.95 204.504 325.552 249.09C356.969 229.703 388.404 210.472 419.318 191.774C451.516 172.356 483.714 152.915 516.222 133.935C454.329 176.273 391.682 217.573 328.836 258.597C268.91 297.685 199.974 341.878 139.369 380.355C132.05 384.581 125.248 375.156 131.819 370.272L131.841 370.295Z" fill="url(#paint0_radial_3782_47844)"/>
<path d="M-81.3471 -42.2335C-85.5984 -32.2804 -90.1715 -22.4339 -95.5443 -13.0485C-92.8827 -28.1868 -88.5211 -42.9943 -83.8015 -57.6087C-82.4341 -61.8533 -80.3165 -67.8255 -78.8039 -72.0706C-78.0193 -74.2927 -75.5878 -75.4592 -73.3656 -74.6747C-71.4523 -74.005 -70.3234 -72.0957 -70.5539 -70.1495C-71.1275 -65.2219 -71.7141 -60.2861 -72.433 -55.358C-74.2008 -43.02 -76.3687 -30.7394 -79.3776 -18.639C-79.9885 -16.1987 -80.6288 -13.7762 -81.3671 -11.3648C-81.553 -13.8859 -81.6539 -16.3877 -81.7075 -18.901C-81.879 -26.689 -81.7306 -34.4601 -81.3471 -42.2335ZM-38.0461 -24.0219C-40.6242 -17.1049 -42.9736 -10.1135 -44.9423 -2.97977C-45.5328 -0.825113 -46.107 1.35561 -46.5667 3.57351C-45.2244 1.74617 -43.9751 -0.113528 -42.7553 -1.99108C-34.3374 -15.0944 -27.2995 -29.0028 -20.9251 -43.1851C-19.0085 -47.6844 -24.824 -51.3742 -28.0782 -47.6704C-39.3107 -34.2693 -50.1089 -20.3229 -58.7126 -5.02866C-51.3994 -10.8687 -44.5712 -17.2768 -38.0509 -24.0006L-38.0461 -24.0219ZM-34.7089 17.6149C-23.9782 15.3547 -13.4366 12.1583 -3.04107 8.67188C-9.46178 13.8775 -15.7122 19.267 -21.717 24.9021C-23.5786 26.656 -25.4108 28.4278 -27.1855 30.2908C-22.5572 28.1054 -18.0928 25.6594 -13.6435 23.1319C-2.65778 16.8542 8.01576 9.93612 18.3979 2.72843L24.596 -1.64569C26.1805 -2.77035 26.8463 -4.86322 26.0798 -6.74592C25.1801 -8.92688 22.7041 -9.97016 20.5232 -9.07049C16.3389 -7.36474 10.4837 -4.98942 6.39929 -3.18279C-7.64694 3.0017 -21.6136 9.57275 -34.7007 17.6279L-34.7089 17.6149ZM40.0876 48.2602C18.2538 45.974 -3.73547 44.0768 -25.7014 43.8932C-10.7128 47.7042 4.54707 50.6167 19.8027 53.2044C8.21417 54.1306 -3.35895 55.2835 -14.8428 56.7806C-18.4565 57.2539 -22.0717 57.7827 -25.6801 58.38C-18.4134 59.0279 -11.1346 59.377 -3.85768 59.6364C14.2561 60.2614 32.4869 60.176 50.6004 59.6732L61.4775 59.3222C63.5468 59.2569 65.3095 57.6926 65.5656 55.5847C65.8536 53.2384 64.1919 51.1186 61.8456 50.8306C55.4158 50.0381 46.4142 48.9176 40.0533 48.2636L40.0876 48.2602ZM46.1376 114.788C52.7076 117.567 65.906 123.014 72.5213 125.691C74.4824 126.494 76.7879 125.735 77.846 123.831C78.9935 121.781 78.2671 119.182 76.2168 118.034C64.3201 111.331 51.1877 104.023 39.1974 97.6336C18.4441 86.5712 -2.46177 75.7869 -23.9141 66.1287C-7.50269 77.5769 9.41557 88.2695 26.4994 98.6759C11.6998 93.1995 -3.17895 87.9731 -18.0467 83.1399C-22.5789 81.6625 -27.1468 80.2439 -31.7293 78.889C-23.2673 83.3147 -14.6871 87.4659 -6.05816 91.55C11.0951 99.6385 28.6503 107.383 46.1294 114.775L46.1376 114.788ZM60.3075 197.31L75.6143 211.455C77.2201 212.937 79.7484 212.965 81.3856 211.461C83.1188 209.879 83.2326 207.169 81.6505 205.436C65.754 188.042 47.3412 168.211 31.1749 151.169C9.29858 128.205 -12.9025 105.246 -35.7224 83.2399C-16.8706 106.688 2.82202 129.68 22.6898 152.343C3.30321 135.272 -16.2996 118.464 -36.1574 102.089C-38.8639 99.8992 -41.5394 97.6716 -44.2638 95.5111C-40.1779 99.8348 -33.9116 106.206 -29.7133 110.478C-0.404326 140.134 29.7865 168.908 60.3075 197.31ZM-61.809 105.936C-46.4793 134.02 -30.3775 161.655 -14.085 189.189C-2.40666 208.928 11.0829 231.112 23.1183 250.755L35.7192 271.151C36.8921 273.014 39.3213 273.723 41.3093 272.69C43.3966 271.613 44.2078 269.028 43.1305 266.941C13.7313 210.288 -16.5505 153.244 -48.8073 98.2071C-34.6784 129.558 -19.7551 160.755 -4.42929 191.753C-14.4704 176.205 -24.5993 160.748 -34.7355 145.568C-43.6661 132.304 -52.5657 119.003 -61.796 105.927L-61.809 105.936ZM-80.9656 113.626C-71.9574 150.948 -62.08 188.031 -51.9792 225.065C-44.7433 251.622 -36.2643 281.599 -28.6529 308.174L-20.6464 335.81C-20.0193 337.962 -17.8199 339.289 -15.6067 338.787C-13.3119 338.271 -11.8763 335.984 -12.401 333.677C-29.389 259.078 -47.1611 183.754 -67.2981 109.991C-60.3055 148.908 -52.5552 187.931 -44.4053 226.866C-50.4721 207.197 -56.6349 187.606 -62.8475 168.283C-68.7809 150.04 -74.6751 131.772 -80.9525 113.618L-80.9656 113.626ZM-103.264 114.562C-103.479 160.326 -102.782 206.063 -101.886 251.801C-101.23 284.61 -100.192 321.726 -99.1906 354.681L-98.0572 388.972C-97.975 391.212 -96.1608 393.054 -93.8806 393.093C-91.5237 393.137 -89.5776 391.258 -89.5246 388.914C-87.7508 297.903 -86.537 205.28 -88.024 114.321C-90.8947 163.467 -92.9967 213.112 -94.6369 262.739C-95.8863 236.126 -97.255 209.497 -98.7993 183.052C-100.182 160.216 -101.522 137.39 -103.264 114.562ZM-186.82 405.396C-160.633 307.588 -134.559 207.924 -111.613 109.391C-126.473 157.988 -140.786 207.223 -154.709 256.557C-149.682 232.489 -144.736 208.435 -140.033 184.862C-135.163 160.31 -130.281 135.751 -125.772 111.117C-138.37 159.581 -150.109 208.251 -161.636 256.969C-172.591 303.417 -184.72 356.643 -195.131 403.349C-196.122 408.885 -188.435 410.633 -186.849 405.378L-186.82 405.396Z" fill="url(#paint1_radial_3782_47844)"/>
<defs>
<radialGradient id="paint0_radial_3782_47844" cx="0" cy="0" r="1" gradientUnits="userSpaceOnUse" gradientTransform="translate(459.187 117.579) rotate(113.047) scale(327.175 341.899)">
<stop stop-color="#F47920"/>
<stop offset="0.65" stop-color="#DC3069"/>
<stop offset="1" stop-color="#D20F8C"/>
</radialGradient>
<radialGradient id="paint1_radial_3782_47844" cx="0" cy="0" r="1" gradientUnits="userSpaceOnUse" gradientTransform="translate(-101.632 141.801) rotate(136.604) scale(224.942 224.942)">
<stop offset="0.3" stop-color="#FDEE00"/>
<stop offset="0.36" stop-color="#F2EB06"/>
<stop offset="0.47" stop-color="#D5E416"/>
<stop offset="0.61" stop-color="#A6D831"/>
<stop offset="0.77" stop-color="#66C956"/>
<stop offset="0.96" stop-color="#14B585"/>
<stop offset="1" stop-color="#00B091"/>
</radialGradient>
</defs>
</svg>
