<svg width="40" height="41" viewBox="0 0 40 41" fill="none" xmlns="http://www.w3.org/2000/svg">
<path d="M4.44444 18.6528C3.22222 18.6528 2.17556 18.2172 1.30444 17.3461C0.434815 16.4765 0 15.4306 0 14.2083V5.31944C0 4.09722 0.434815 3.05056 1.30444 2.17944C2.17556 1.30981 3.22222 0.875 4.44444 0.875H13.3333C14.5556 0.875 15.6022 1.30981 16.4733 2.17944C17.343 3.05056 17.7778 4.09722 17.7778 5.31944V14.2083C17.7778 15.4306 17.343 16.4765 16.4733 17.3461C15.6022 18.2172 14.5556 18.6528 13.3333 18.6528H4.44444ZM4.44444 40.875C3.22222 40.875 2.17556 40.4402 1.30444 39.5706C0.434815 38.6994 0 37.6528 0 36.4306V27.5417C0 26.3194 0.434815 25.2728 1.30444 24.4017C2.17556 23.532 3.22222 23.0972 4.44444 23.0972H13.3333C14.5556 23.0972 15.6022 23.532 16.4733 24.4017C17.343 25.2728 17.7778 26.3194 17.7778 27.5417V36.4306C17.7778 37.6528 17.343 38.6994 16.4733 39.5706C15.6022 40.4402 14.5556 40.875 13.3333 40.875H4.44444ZM26.6667 18.6528C25.4444 18.6528 24.3985 18.2172 23.5289 17.3461C22.6578 16.4765 22.2222 15.4306 22.2222 14.2083V5.31944C22.2222 4.09722 22.6578 3.05056 23.5289 2.17944C24.3985 1.30981 25.4444 0.875 26.6667 0.875H35.5556C36.7778 0.875 37.8244 1.30981 38.6956 2.17944C39.5652 3.05056 40 4.09722 40 5.31944V14.2083C40 15.4306 39.5652 16.4765 38.6956 17.3461C37.8244 18.2172 36.7778 18.6528 35.5556 18.6528H26.6667ZM26.6667 40.875C25.4444 40.875 24.3985 40.4402 23.5289 39.5706C22.6578 38.6994 22.2222 37.6528 22.2222 36.4306V27.5417C22.2222 26.3194 22.6578 25.2728 23.5289 24.4017C24.3985 23.532 25.4444 23.0972 26.6667 23.0972H35.5556C36.7778 23.0972 37.8244 23.532 38.6956 24.4017C39.5652 25.2728 40 26.3194 40 27.5417V36.4306C40 37.6528 39.5652 38.6994 38.6956 39.5706C37.8244 40.4402 36.7778 40.875 35.5556 40.875H26.6667Z" fill="url(#paint0_linear_3385_13356)"/>
<defs>
<linearGradient id="paint0_linear_3385_13356" x1="20" y1="0.875" x2="20" y2="40.875" gradientUnits="userSpaceOnUse">
<stop stop-color="#FF6B00"/>
<stop offset="1" stop-color="#FF2100"/>
</linearGradient>
</defs>
</svg>
