<svg width="41" height="41" viewBox="0 0 41 41" fill="none" xmlns="http://www.w3.org/2000/svg">
<path d="M5.31944 40.875C4.09722 40.875 3.05056 40.4402 2.17944 39.5706C1.30981 38.6994 0.875 37.6528 0.875 36.4306V5.31944C0.875 4.09722 1.30981 3.05056 2.17944 2.17944C3.05056 1.30981 4.09722 0.875 5.31944 0.875H36.4306C37.6528 0.875 38.6994 1.30981 39.5706 2.17944C40.4402 3.05056 40.875 4.09722 40.875 5.31944V36.4306C40.875 37.6528 40.4402 38.6994 39.5706 39.5706C38.6994 40.4402 37.6528 40.875 36.4306 40.875H5.31944ZM5.31944 36.4306H36.4306V5.31944H5.31944V36.4306ZM11.9861 31.9861C12.6157 31.9861 13.1439 31.7728 13.5706 31.3461C13.9957 30.9209 14.2083 30.3935 14.2083 29.7639C14.2083 29.1343 13.9957 28.6061 13.5706 28.1794C13.1439 27.7543 12.6157 27.5417 11.9861 27.5417C11.3565 27.5417 10.8283 27.7543 10.4017 28.1794C9.97648 28.6061 9.76389 29.1343 9.76389 29.7639C9.76389 30.3935 9.97648 30.9209 10.4017 31.3461C10.8283 31.7728 11.3565 31.9861 11.9861 31.9861ZM11.9861 23.0972C12.6157 23.0972 13.1439 22.8839 13.5706 22.4572C13.9957 22.032 14.2083 21.5046 14.2083 20.875C14.2083 20.2454 13.9957 19.7172 13.5706 19.2906C13.1439 18.8654 12.6157 18.6528 11.9861 18.6528C11.3565 18.6528 10.8283 18.8654 10.4017 19.2906C9.97648 19.7172 9.76389 20.2454 9.76389 20.875C9.76389 21.5046 9.97648 22.032 10.4017 22.4572C10.8283 22.8839 11.3565 23.0972 11.9861 23.0972ZM11.9861 14.2083C12.6157 14.2083 13.1439 13.995 13.5706 13.5683C13.9957 13.1431 14.2083 12.6157 14.2083 11.9861C14.2083 11.3565 13.9957 10.8283 13.5706 10.4017C13.1439 9.97648 12.6157 9.76389 11.9861 9.76389C11.3565 9.76389 10.8283 9.97648 10.4017 10.4017C9.97648 10.8283 9.76389 11.3565 9.76389 11.9861C9.76389 12.6157 9.97648 13.1431 10.4017 13.5683C10.8283 13.995 11.3565 14.2083 11.9861 14.2083ZM20.875 31.9861H29.7639C30.3935 31.9861 30.9209 31.7728 31.3461 31.3461C31.7728 30.9209 31.9861 30.3935 31.9861 29.7639C31.9861 29.1343 31.7728 28.6061 31.3461 28.1794C30.9209 27.7543 30.3935 27.5417 29.7639 27.5417H20.875C20.2454 27.5417 19.718 27.7543 19.2928 28.1794C18.8661 28.6061 18.6528 29.1343 18.6528 29.7639C18.6528 30.3935 18.8661 30.9209 19.2928 31.3461C19.718 31.7728 20.2454 31.9861 20.875 31.9861ZM20.875 23.0972H29.7639C30.3935 23.0972 30.9209 22.8839 31.3461 22.4572C31.7728 22.032 31.9861 21.5046 31.9861 20.875C31.9861 20.2454 31.7728 19.7172 31.3461 19.2906C30.9209 18.8654 30.3935 18.6528 29.7639 18.6528H20.875C20.2454 18.6528 19.718 18.8654 19.2928 19.2906C18.8661 19.7172 18.6528 20.2454 18.6528 20.875C18.6528 21.5046 18.8661 22.032 19.2928 22.4572C19.718 22.8839 20.2454 23.0972 20.875 23.0972ZM20.875 14.2083H29.7639C30.3935 14.2083 30.9209 13.995 31.3461 13.5683C31.7728 13.1431 31.9861 12.6157 31.9861 11.9861C31.9861 11.3565 31.7728 10.8283 31.3461 10.4017C30.9209 9.97648 30.3935 9.76389 29.7639 9.76389H20.875C20.2454 9.76389 19.718 9.97648 19.2928 10.4017C18.8661 10.8283 18.6528 11.3565 18.6528 11.9861C18.6528 12.6157 18.8661 13.1431 19.2928 13.5683C19.718 13.995 20.2454 14.2083 20.875 14.2083ZM5.31944 36.4306V5.31944V36.4306Z" fill="url(#paint0_linear_3385_13355)"/>
<defs>
<linearGradient id="paint0_linear_3385_13355" x1="20.875" y1="0.875" x2="20.875" y2="40.875" gradientUnits="userSpaceOnUse">
<stop stop-color="#FF6B00"/>
<stop offset="1" stop-color="#FF2100"/>
</linearGradient>
</defs>
</svg>
