<svg width="28" height="28" viewBox="0 0 28 28" fill="none" xmlns="http://www.w3.org/2000/svg">
<path d="M20.2195 9.96172L18.8145 8.55664L8.55606 18.815L9.96115 20.2201L20.2195 9.96172Z" fill="#DC5034"/>
<path d="M18.8171 20.2225L20.2222 18.8174L9.96378 8.55899L8.5587 9.96408L18.8171 20.2225Z" fill="#DC5034"/>
<path fill-rule="evenodd" clip-rule="evenodd" d="M14 24.8889C20.0138 24.8889 24.8889 20.0138 24.8889 14C24.8889 7.98623 20.0138 3.11111 14 3.11111C7.98623 3.11111 3.11111 7.98623 3.11111 14C3.11111 20.0138 7.98623 24.8889 14 24.8889ZM14 28C21.732 28 28 21.732 28 14C28 6.26801 21.732 0 14 0C6.26801 0 0 6.26801 0 14C0 21.732 6.26801 28 14 28Z" fill="#DC5034"/>
</svg>
