<svg width="390" height="358" viewBox="0 0 390 358" fill="none" xmlns="http://www.w3.org/2000/svg">
<g opacity="0.19" clip-path="url(#clip0_3624_48228)">
<path d="M-9.98665 472.272C-2.09926 460.056 5.43935 447.571 11.7678 434.645C-3.37099 449.35 -16.7065 465.562 -29.5367 481.947C-33.2561 486.716 -38.3505 493.598 -41.9719 498.507C-43.8713 501.063 -43.2189 504.493 -40.5159 506.146C-38.1743 507.574 -35.0755 507.209 -33.0673 505.442C-27.8882 500.937 -22.7514 496.442 -17.7127 491.806C-5.05632 480.234 7.2042 468.282 18.5717 455.616C20.8528 453.077 23.0998 450.484 25.2616 447.809C22.2146 449.605 19.2781 451.498 16.3715 453.424C7.34273 459.416 -1.43474 465.737 -9.98665 472.272ZM46.1815 502.118C51.9798 494.002 58.0629 486.066 64.5838 478.399C66.5604 476.09 68.5837 473.791 70.7301 471.546C69.7349 474.368 68.6334 477.111 67.4641 479.85C59.3715 498.836 49.2407 517.057 38.2261 534.804C34.6535 540.332 25.6864 537.312 27.2716 531.048C33.4237 508.939 40.513 486.846 50.9779 465.93C50.2741 478.051 48.5311 490.098 46.1772 502.098L46.1815 502.118ZM96.4626 472.561C102.64 485.323 107.606 498.639 112.101 512.039C112.793 501.363 113.841 490.69 115.394 480.086C115.888 476.808 116.402 473.524 117.09 470.223C118.377 476.7 119.222 483.195 119.966 489.732C121.774 505.945 122.574 522.321 122.81 538.661L122.857 548.461C122.883 550.974 121.025 553.317 118.245 554.017C115.025 554.836 111.796 553.117 111.052 550.175C109.599 544.547 107.531 536.659 106.265 531.071C101.846 511.824 97.9696 492.314 96.4837 472.556L96.4626 472.561ZM192.569 524.775C172.124 504.261 152.016 483.267 133.859 460.944C150.433 473.26 166.222 486.543 181.651 500.109C173.244 487.519 165.112 474.765 157.454 461.845C155.035 457.773 152.697 453.663 150.435 449.494C157.113 456.417 163.444 463.579 169.703 470.818C185.216 488.854 199.989 507.563 214.228 526.473L222.707 537.889C224.322 540.048 223.977 543.091 221.766 545.046C219.33 547.192 215.548 547.182 213.309 545.019C207.161 539.076 198.527 530.761 192.59 524.77L192.569 524.775ZM273.477 478.263C281.999 482.784 299.012 491.976 307.472 496.613C310 497.979 310.994 500.947 309.701 503.53C308.303 506.34 304.724 507.644 301.747 506.459C284.366 499.604 265.298 491.967 248.216 484.761C218.643 472.292 189.235 459.462 160.699 445.158C187.189 452.869 213.199 461.723 239.045 470.939C220.7 460.155 202.599 449.072 184.922 437.693C179.524 434.223 174.198 430.676 168.901 427.061C180.874 432.196 192.619 437.706 204.335 443.283C227.588 454.437 250.767 466.257 273.477 478.263ZM379.343 427.393L407.997 431.84C411.014 432.306 413.097 434.868 412.733 437.732C412.341 440.765 409.351 443.015 406.051 442.775C373.184 440.281 335.511 437.172 302.854 434.124C258.761 429.946 214.412 425.419 170.622 419.508C212.786 420.216 255.158 422.157 297.265 424.502C261.947 418.187 226.737 411.463 191.793 404.131C187.073 403.11 182.363 402.127 177.652 401.043C185.936 401.799 198.316 403.166 206.635 404.076C264.452 410.561 321.977 418.634 379.335 427.354L379.343 427.393ZM175.227 374.873C219.838 368.292 264.551 362.866 309.308 357.736C341.398 354.044 377.736 350.26 410.014 347.014L443.598 343.741C446.689 343.439 449.478 345.377 449.937 348.241C450.406 351.244 448.13 354.107 444.85 354.655C356.125 369.452 266.227 383.679 177.017 394.299C224.363 383.92 272.204 374.467 320.128 365.584C294.165 367.627 268.235 369.521 242.609 371.184C220.167 372.565 197.713 373.99 175.215 374.916L175.227 374.873ZM168.377 349.2C218.373 328.847 268.787 309.579 319.347 290.563C355.605 276.924 396.747 261.854 433.332 248.589L471.443 234.884C474.408 233.818 477.724 235.029 478.959 237.679C480.241 240.441 478.794 243.729 475.745 245.017C376.648 286.742 276.1 328.242 175.379 366.064C225.545 342.382 276.442 319.391 327.584 296.894C300.162 306.27 272.748 315.481 245.608 324.428C219.926 332.827 194.227 341.251 168.377 349.2ZM151.238 325.655C203.34 289.193 256.157 253.648 309.14 218.35C347.155 193.027 390.392 164.693 428.861 139.615L468.947 113.607C471.571 111.906 475.155 112.327 477.068 114.623C479.039 116.987 478.5 120.458 475.835 122.372C373.298 196.286 268.495 270.908 163.358 341.441C217.146 299.566 272.16 258.108 327.52 217.102C296.101 236.894 264.551 256.593 233.085 275.969C205.866 292.652 178.699 309.365 151.196 325.665L151.238 325.655ZM415.259 9.80181C324.927 114.067 232.34 219.687 138.53 321.213C181.924 267.515 226.467 213.885 271.478 160.558C248.095 184.777 224.66 208.864 201.562 232.369C177.493 256.801 153.427 281.253 128.979 305.383C174.069 254.11 220.074 203.548 266.321 153.176C310.426 105.169 361.345 50.6081 406.198 2.96312C411.713 -2.42882 419.98 4.03829 415.284 9.81645L415.259 9.80181Z" fill="url(#paint0_radial_3624_48228)"/>
</g>
<defs>
<radialGradient id="paint0_radial_3624_48228" cx="0" cy="0" r="1" gradientUnits="userSpaceOnUse" gradientTransform="translate(183.552 305.733) rotate(-81.5325) scale(292.786 313.708)">
<stop stop-color="#F47920"/>
<stop offset="0.65" stop-color="#DC3069"/>
<stop offset="1" stop-color="#D20F8C"/>
</radialGradient>
<clipPath id="clip0_3624_48228">
<rect width="390" height="358" fill="white"/>
</clipPath>
</defs>
</svg>
