<svg width="390" height="962" viewBox="0 0 390 962" fill="none" xmlns="http://www.w3.org/2000/svg">
<path opacity="0.45" d="M-6.47405 913.673C-7.11885 906.944 -7.96824 900.232 -9.38696 893.745C-10.6725 903.615 -10.8643 913.445 -10.822 923.176C-10.8042 926.003 -10.6787 929.998 -10.5846 932.844C-10.5408 934.33 -9.31289 935.32 -7.84886 935.047C-6.58146 934.81 -5.55511 933.711 -5.33173 932.465C-4.74017 929.272 -4.16136 926.095 -3.65894 922.899C-2.37621 914.899 -1.3474 906.89 -0.851089 898.913C-0.750709 897.313 -0.678162 895.705 -0.66055 894.095C-1.25519 895.677 -1.78139 897.257 -2.28689 898.84C-3.85531 903.759 -5.23671 908.714 -6.47405 913.673ZM22.6501 906.444C22.4258 901.798 22.3575 897.126 22.5264 892.411C22.582 890.986 22.6575 889.551 22.7936 888.096C23.2443 889.391 23.6338 890.692 23.9969 892.012C26.52 901.162 28.078 910.686 29.1766 920.322C29.4671 923.368 25.3208 925.129 24.0923 922.451C19.9595 912.822 16.1732 902.904 13.9597 892.337C17.2001 896.779 20.0398 901.521 22.643 906.438L22.6501 906.444ZM32.4836 880.376C38.4219 882.882 44.0779 885.961 49.5864 889.216C46.7586 885.282 44.0614 881.236 41.5689 877.056C40.8029 875.76 40.0434 874.455 39.342 873.09C41.6809 874.942 43.8637 876.938 46.0218 878.981C51.3604 884.059 56.3779 889.511 61.1787 895.127L64.0239 898.525C64.7584 899.392 64.7561 900.791 63.9431 901.907C63.0033 903.202 61.3282 903.617 60.2075 902.826C58.0529 901.322 55.0218 899.224 52.9468 897.675C45.7793 892.359 38.7338 886.781 32.49 880.367L32.4836 880.376ZM82.6473 868.405C69.2618 867.676 55.8607 866.674 42.7886 864.597C52.3951 863.686 61.9938 863.358 71.5429 863.241C64.8397 861.495 58.1899 859.605 51.6654 857.508C49.6069 856.849 47.5668 856.152 45.538 855.41C49.9742 855.725 54.353 856.233 58.7277 856.79C69.5973 858.204 80.3908 860.084 91.0471 862.201L97.438 863.516C98.6507 863.761 99.4025 864.929 99.1591 866.304C98.8892 867.815 97.5046 868.998 96.0632 868.947C92.1027 868.807 86.5504 868.62 82.6537 868.397L82.6473 868.405ZM98.7732 826.824C103.19 825.724 112.055 823.588 116.483 822.548C117.8 822.231 119.02 822.952 119.293 824.258C119.593 825.675 118.663 827.252 117.233 827.773C108.908 830.839 99.7405 834.162 91.423 837.012C77.0255 841.949 62.5836 846.707 48.0351 850.679C59.934 845.054 71.9876 839.976 84.0856 835.076C74.2743 837.077 64.4663 838.897 54.727 840.48C51.7544 840.965 48.7858 841.401 45.8086 841.804C51.6625 839.836 57.5416 838.07 63.4295 836.336C75.1398 832.924 87.0155 829.768 98.7732 826.824ZM122.756 775.895L134.503 768.453C135.74 767.669 137.24 767.908 137.933 769.019C138.665 770.198 138.222 771.92 136.948 772.872C124.226 782.315 109.571 793.052 96.7654 802.237C79.4572 814.616 61.9549 826.954 44.2574 838.634C59.8597 825.652 75.8938 813.034 91.9476 800.64C77.2276 809.522 62.4289 818.227 47.5517 826.637C45.5336 827.762 43.5298 828.898 41.4966 829.999C44.7402 827.662 49.6555 824.255 52.9564 821.961C75.9417 806.08 99.279 790.843 122.742 775.884L122.756 775.895ZM33.0596 821.646C47.4523 805.358 62.2156 789.44 77.0799 773.612C87.7336 762.258 99.9123 749.539 110.763 738.282L122.084 726.605C123.125 725.53 124.703 725.33 125.697 726.183C126.735 727.082 126.73 728.793 125.69 730.013C97.558 763.003 68.8332 796.162 39.3188 827.849C53.6143 809.38 68.3578 791.079 83.2961 772.95C74.404 781.807 65.481 790.602 56.6026 799.221C48.8056 806.743 41.0165 814.284 33.0675 821.665L33.0596 821.646ZM23.15 814.855C35.5351 792.082 48.3862 769.555 61.3631 747.07C70.6688 730.945 81.3449 712.789 90.8782 696.692L100.841 679.962C101.616 678.661 103.177 678.042 104.393 678.578C105.657 679.137 106.078 680.736 105.336 682.141C81.1866 727.762 56.4424 773.76 30.5731 818.531C42.06 794.545 54.0133 770.57 66.1981 746.691C58.8892 758.559 51.5357 770.368 44.2064 781.998C37.251 792.981 30.2963 803.977 23.15 814.855ZM10.0971 812.034C18.6029 782.99 27.6347 754.041 36.7986 725.126C43.3743 704.381 50.9883 680.949 57.8004 660.147L64.9349 638.514C65.4021 637.098 66.8326 636.12 68.1935 636.319C69.5957 636.524 70.4006 637.902 69.9795 639.404C53.8619 697.314 37.1209 756.181 19.0783 813.728C26.6379 782.27 34.766 750.573 43.1504 718.925C37.3876 735.675 31.55 752.433 25.6497 769.053C20.5238 783.402 15.425 797.745 10.0843 812.05L10.0971 812.034ZM15.3748 619.21C12.4725 683.859 9.13744 749.688 4.1742 814.474C4.52658 782.16 5.31868 749.51 6.3687 716.818C4.81753 732.588 3.20986 748.328 1.55716 763.76C-0.182961 779.82 -1.91593 795.885 -3.88132 811.958C-2.2096 779.957 0.00102863 747.916 2.35493 715.865C4.60936 685.31 7.46063 650.335 10.0925 619.672C10.5507 616.064 15.4358 615.722 15.3884 619.207L15.3748 619.21Z" fill="url(#paint0_radial_3666_52114)"/>
<path opacity="0.22" d="M448.769 48.0222C449.414 54.751 450.263 61.4637 451.682 67.9504C452.967 58.0801 453.159 48.2505 453.117 38.5196C453.099 35.6921 452.974 31.697 452.88 28.8513C452.836 27.3654 451.608 26.3758 450.144 26.6482C448.876 26.8854 447.85 27.9847 447.627 29.2303C447.035 32.4238 446.456 35.6008 445.954 38.796C444.671 46.7966 443.642 54.8051 443.146 62.7825C443.046 64.3824 442.973 65.9901 442.955 67.5999C443.55 66.0186 444.076 64.4382 444.582 62.8553C446.15 57.9362 447.532 52.981 448.769 48.0222ZM419.645 55.2517C419.869 59.8971 419.937 64.569 419.769 69.2848C419.713 70.7089 419.637 72.1443 419.501 73.5995C419.051 72.3047 418.661 71.0037 418.298 69.6833C415.775 60.5329 414.217 51.0094 413.118 41.3735C412.828 38.3276 416.974 36.566 418.203 39.2446C422.335 48.8735 426.122 58.7914 428.335 69.3581C425.095 64.9165 422.255 60.1745 419.652 55.2571L419.645 55.2517ZM409.811 81.3197C403.873 78.8136 398.217 75.7347 392.709 72.4788C395.536 76.4135 398.234 80.4592 400.726 84.6389C401.492 85.9353 402.252 87.2399 402.953 88.6055C400.614 86.7535 398.431 84.7573 396.273 82.7142C390.934 77.6359 385.917 72.1841 381.116 66.5681L378.271 63.1702C377.537 62.3032 377.539 60.9044 378.352 59.7885C379.292 58.4932 380.967 58.0785 382.087 58.8696C384.242 60.3735 387.273 62.4716 389.348 64.0203C396.516 69.3363 403.561 74.9139 409.805 81.3279L409.811 81.3197ZM359.648 93.2901C373.033 94.019 386.434 95.0213 399.506 97.098C389.9 98.0092 380.301 98.3373 370.752 98.454C377.455 100.201 384.105 102.09 390.63 104.187C392.688 104.846 394.728 105.544 396.757 106.285C392.321 105.97 387.942 105.462 383.567 104.905C372.698 103.492 361.904 101.612 351.248 99.4945L344.857 98.1792C343.644 97.934 342.892 96.7661 343.136 95.3917C343.406 93.8801 344.79 92.697 346.232 92.7479C350.192 92.8883 355.745 93.0751 359.641 93.2984L359.648 93.2901ZM343.522 134.871C339.105 135.971 330.24 138.108 325.812 139.147C324.495 139.464 323.275 138.743 323.002 137.438C322.702 136.021 323.632 134.444 325.062 133.922C333.387 130.856 342.554 127.533 350.872 124.683C365.269 119.747 379.711 114.988 394.26 111.016C382.361 116.642 370.307 121.719 358.209 126.619C368.021 124.619 377.829 122.799 387.568 121.215C390.541 120.73 393.509 120.294 396.486 119.891C390.632 121.859 384.753 123.626 378.865 125.359C367.155 128.771 355.279 131.927 343.522 134.871ZM319.539 185.801L307.792 193.242C306.555 194.026 305.055 193.787 304.362 192.676C303.63 191.497 304.073 189.775 305.347 188.824C318.069 179.38 332.724 168.643 345.53 159.459C362.838 147.079 380.34 134.741 398.037 123.061C382.435 136.044 366.401 148.662 350.347 161.056C365.067 152.174 379.866 143.469 394.743 135.058C396.761 133.933 398.765 132.797 400.798 131.697C397.555 134.033 392.639 137.441 389.339 139.734C366.353 155.615 343.016 170.852 319.553 185.811L319.539 185.801ZM409.235 140.049C394.843 156.337 380.079 172.255 365.215 188.084C354.561 199.437 342.383 212.156 331.532 223.414L320.211 235.09C319.17 236.165 317.592 236.365 316.598 235.512C315.56 234.613 315.565 232.902 316.605 231.682C344.737 198.692 373.462 165.534 402.976 133.846C388.681 152.315 373.937 170.617 358.999 188.746C367.891 179.888 376.814 171.093 385.692 162.474C393.489 154.952 401.278 147.412 409.227 140.03L409.235 140.049ZM419.145 146.84C406.76 169.613 393.909 192.14 380.932 214.625C371.626 230.75 360.95 248.906 351.417 265.003L341.454 281.733C340.679 283.035 339.118 283.653 337.902 283.118C336.637 282.558 336.217 280.959 336.959 279.554C361.108 233.933 385.853 187.936 411.722 143.164C400.235 167.15 388.282 191.125 376.097 215.004C383.406 203.136 390.759 191.327 398.089 179.697C405.044 168.714 411.999 157.718 419.145 146.84ZM432.198 149.662C423.692 178.705 414.66 207.654 405.496 236.569C398.921 257.314 391.307 280.746 384.495 301.549L377.36 323.182C376.893 324.597 375.462 325.576 374.101 325.376C372.699 325.171 371.894 323.793 372.315 322.291C388.433 264.381 405.174 205.514 423.217 147.967C415.657 179.425 407.529 211.122 399.145 242.77C404.907 226.021 410.745 209.262 416.645 192.643C421.771 178.294 426.87 163.95 432.211 149.645L432.198 149.662ZM426.92 342.485C429.822 277.836 433.157 212.008 438.121 147.221C437.768 179.535 436.976 212.186 435.926 244.877C437.477 229.107 439.085 213.367 440.738 197.935C442.478 181.876 444.211 165.81 446.176 149.737C444.505 181.739 442.294 213.779 439.94 245.83C437.686 276.385 434.834 311.36 432.202 342.024C431.744 345.632 426.859 345.973 426.907 342.488L426.92 342.485Z" fill="url(#paint1_radial_3666_52114)"/>
<defs>
<radialGradient id="paint0_radial_3666_52114" cx="0" cy="0" r="1" gradientUnits="userSpaceOnUse" gradientTransform="translate(217.807 709.316) rotate(144.706) scale(288.592 1761.84)">
<stop offset="0.17" stop-color="#00B091"/>
<stop offset="0.24" stop-color="#21B87D"/>
<stop offset="0.47" stop-color="#96D43A"/>
<stop offset="0.7" stop-color="#FDEE00"/>
<stop offset="1" stop-color="#E0E610"/>
</radialGradient>
<radialGradient id="paint1_radial_3666_52114" cx="0" cy="0" r="1" gradientUnits="userSpaceOnUse" gradientTransform="translate(426.145 166.737) rotate(59.333) scale(132.966 150.382)">
<stop stop-color="#F47920"/>
<stop offset="0.65" stop-color="#DC3069"/>
<stop offset="1" stop-color="#D20F8C"/>
</radialGradient>
</defs>
</svg>
