<svg width="1132" height="386" viewBox="0 0 1132 386" fill="none" xmlns="http://www.w3.org/2000/svg">
<path opacity="0.1" d="M1146.18 357.489C1146.18 357.489 1146.07 357.525 1146 357.538L1145.7 355.676C1145.54 355.699 1145.37 355.721 1145.23 355.748L1145.27 353.95C1145.02 353.945 1144.76 353.94 1144.5 353.919L1144.84 352.323C1144.5 352.243 1144.17 352.184 1143.83 352.104L1144.36 350.77C1143.98 350.609 1143.59 350.464 1143.2 350.303L1143.82 349.267C1143.41 349.029 1142.99 348.791 1142.57 348.553L1143.17 347.784C1142.76 347.462 1142.35 347.157 1141.94 346.836L1142.47 346.303C1142.08 345.919 1141.67 345.545 1141.28 345.161L1141.7 344.804C1141.33 344.372 1140.95 343.94 1140.57 343.508L1140.9 343.276C1071.99 249.814 1005.52 205.813 947.064 189.205C886.964 172.129 835.604 184.118 799.436 200.337C797.672 201.134 795.961 201.929 794.261 202.745C774.714 180.466 753.845 163.023 734.358 149.593C691.936 120.337 656.014 109.908 654.048 109.35L653.968 109.327C653.809 109.282 617.704 99.1941 568.325 98.5574C543.643 98.2413 515.629 100.292 487.127 107.159C476.407 109.751 465.609 113.038 454.897 117.118C446.78 118.57 438.69 120.354 430.704 122.561C422.555 123.03 414.499 123.782 406.622 124.875C398.265 124.072 390.124 123.484 382.261 123.13C373.818 120.56 365.716 118.07 358.114 115.705L357.57 115.55C353.932 113.338 350.367 111.112 346.963 108.864L346.165 108.33L345.217 108.385L345.185 108.376C344.954 108.396 343.865 108.462 341.901 108.502C339.751 106.404 337.645 104.269 335.617 102.104L335.035 101.477L334.195 101.273C334.195 101.273 331.739 100.677 326.897 99.5406C325.93 98.1386 324.985 96.7253 324.059 95.3007L323.712 94.758L323.17 94.416C323.17 94.416 319.596 92.2218 312.527 88.7099C312.486 88.6127 312.424 88.5267 312.382 88.4295L312.196 88.052L311.902 87.7466C311.797 87.6312 306.451 81.8243 295.256 73.621C291.395 68.5437 285.288 61.3418 276.585 53.368C260.114 38.3187 234.369 20.6511 197.35 10.133C150.805 -3.09189 86.5306 -4.98835 0.645008 23.3964L2.47485 28.7508C2.47485 28.7508 2.58868 28.7148 2.6616 28.7014L2.9617 30.5633C3.12352 30.541 3.28535 30.5186 3.43119 30.4917L3.38671 32.2899C3.64443 32.2948 3.90218 32.2997 4.15541 32.3204L3.82267 33.9171C4.16282 33.9967 4.49147 34.0559 4.83163 34.1355L4.29699 35.4698C4.68311 35.6308 5.07372 35.7759 5.45985 35.9369L4.83727 36.9729C5.25338 37.2107 5.66953 37.4485 6.08564 37.6863L5.48692 38.4558C5.89656 38.7772 6.31068 39.0828 6.72032 39.4042L6.18907 39.9366C6.58074 40.3212 6.99289 40.6945 7.38457 41.0792L6.95511 41.4355C7.33331 41.8675 7.7115 42.2995 8.0897 42.7316L7.76457 42.9638C76.6257 136.449 143.118 180.454 201.571 197.062C261.67 214.138 313.03 202.149 349.199 185.93C350.963 185.132 352.674 184.338 354.374 183.522C373.926 205.785 394.794 223.228 414.277 236.674C456.699 265.93 492.62 276.358 494.586 276.917L494.65 276.935C494.826 276.985 530.931 287.073 580.294 287.705C604.975 288.021 632.99 285.97 661.491 279.103C672.212 276.512 683.005 273.24 693.721 269.144C701.838 267.692 709.929 265.908 717.915 263.701C726.063 263.232 734.119 262.48 741.996 261.387C750.353 262.19 758.495 262.778 766.358 263.133C774.8 265.702 782.903 268.192 790.505 270.557L791.049 270.712C794.687 272.924 798.252 275.15 801.655 277.398L802.454 277.933L803.418 277.882L803.45 277.891C803.68 277.871 804.77 277.805 806.733 277.765C808.884 279.862 810.989 281.998 813.017 284.163L813.599 284.79L814.439 284.994C814.439 284.994 816.896 285.59 821.738 286.726C822.704 288.128 823.65 289.542 824.575 290.966L824.927 291.493L825.469 291.835C825.469 291.835 829.043 294.029 836.112 297.541C836.154 297.638 836.211 297.74 836.257 297.821L836.443 298.199L836.737 298.504C836.842 298.62 842.188 304.427 853.383 312.63C857.244 317.707 863.351 324.909 872.054 332.883C888.525 347.932 914.271 365.6 951.289 376.118C997.834 389.343 1062.11 391.239 1147.99 362.855L1146.16 357.5L1146.18 357.489ZM857.438 308.572C856.86 307.81 856.353 307.102 855.896 306.46C870.549 312.587 890.616 319.963 916.334 327.27C964.717 341.018 1033.07 354.459 1122.91 358.734C1045.39 367.765 985.848 360.398 941.892 347.908C906.504 337.854 881.213 324.483 864.788 313.65C862.096 311.877 859.66 310.177 857.427 308.551L857.438 308.572ZM822.463 277.912C823.505 277.952 824.6 277.99 825.727 278.037C826.591 279.495 827.435 280.965 828.273 282.45C827.173 282.189 826.137 281.946 825.18 281.725C824.283 280.445 823.385 279.165 822.463 277.912ZM513.777 253.516L513.697 253.493C511.747 252.939 476.236 242.644 433.826 216.996C414.75 205.46 394.3 190.801 374.848 172.564C378.162 170.567 381.221 168.617 384.041 166.719C405.009 182.961 426.911 196.222 447.165 206.829C490.768 229.622 526.773 240.057 529.602 240.861L529.762 240.906C529.858 240.933 565.759 250.946 613.483 257.895C636.678 261.256 662.653 263.887 688.69 264.298C684.326 265.006 679.947 265.641 675.569 266.156C634.805 271.008 594.295 267.852 564.015 263.468C548.865 261.282 536.291 258.785 527.5 256.834C523.112 255.861 519.651 255.031 517.316 254.436C516.14 254.136 515.256 253.902 514.644 253.745C514.341 253.659 514.117 253.595 513.973 253.554C513.829 253.514 513.749 253.491 513.749 253.491L513.777 253.516ZM291.276 77.7177C291.854 78.4799 292.361 79.1877 292.818 79.83C278.166 73.7022 258.099 66.3264 232.397 59.0236C184.013 45.2765 115.661 31.8346 25.8223 27.5604C103.342 18.5286 162.883 25.8965 206.839 38.3856C242.227 48.4405 267.518 61.8106 283.942 72.6444C286.634 74.4172 289.071 76.1173 291.304 77.7426L291.276 77.7177ZM326.252 108.377C325.209 108.337 324.114 108.3 322.988 108.253C322.124 106.794 321.28 105.325 320.441 103.839C321.542 104.101 322.578 104.344 323.535 104.564C324.432 105.844 325.329 107.124 326.252 108.377ZM635.69 130.066L634.986 132.787L635.018 132.796C636.968 133.351 672.478 143.645 714.889 169.294C733.964 180.829 754.415 195.489 773.866 213.726C770.552 215.722 767.494 217.672 764.674 219.57C743.706 203.328 721.804 190.067 701.549 179.46C657.947 156.668 621.941 146.233 619.112 145.429L618.936 145.379C618.856 145.356 582.96 135.328 535.231 128.395C512.037 125.033 486.061 122.402 460.025 121.991C464.389 121.284 468.767 120.649 473.146 120.133C513.91 115.281 554.419 118.438 584.699 122.822C599.85 125.008 612.424 127.504 621.215 129.455C625.603 130.429 629.063 131.258 631.399 131.854C632.575 132.154 633.458 132.388 634.07 132.544C634.374 132.631 634.598 132.694 634.742 132.735C634.886 132.776 634.966 132.799 634.966 132.799L635.734 130.096L635.69 130.066ZM851.791 298.596C851.094 296.793 850.414 294.993 849.692 293.217C895.717 303.834 986.626 324.402 1120.89 353.002C1032.6 348.637 965.406 335.371 917.854 321.86C888.444 313.503 866.554 305.063 851.779 298.576L851.791 298.596ZM835.704 284.203C834.654 282.247 833.582 280.303 832.486 278.385C833.998 278.473 835.579 278.564 837.219 278.688C838.228 280.854 839.232 283.035 840.206 285.26C838.958 284.973 837.761 284.685 836.608 284.425C836.305 284.339 836.008 284.289 835.716 284.223L835.704 284.203ZM531.298 235.5L531.154 235.459C528.581 234.728 492.89 224.399 449.805 201.856C430.22 191.628 409.146 178.858 388.929 163.376C391.978 161.219 394.671 159.217 396.96 157.424C418.967 170.92 441.837 182.355 462.914 191.709C506.942 211.24 543.08 221.696 546.964 222.8C547.188 222.863 547.3 222.895 547.3 222.895C547.348 222.909 583.137 232.89 630.04 242.97C654.073 248.124 681.001 253.299 707.553 257.187C706.479 257.685 705.404 258.182 704.319 258.66C673.557 259.315 641.917 256.373 614.266 252.343C590.595 248.897 569.818 244.685 554.98 241.34C547.563 239.66 541.618 238.21 537.543 237.172C535.5 236.643 533.94 236.234 532.865 235.945C531.805 235.661 531.262 235.507 531.262 235.507L531.298 235.5ZM296.903 87.7044C297.6 89.5081 298.281 91.3074 299.002 93.0841C252.977 82.467 162.068 61.8986 27.8021 33.2992C116.099 37.6479 183.272 50.9254 230.824 64.4364C260.234 72.7928 282.124 81.2331 296.899 87.7202L296.903 87.7044ZM249.965 87.6585C271.295 92.4721 288.517 96.4258 301.648 99.4564C302.757 102.06 303.879 104.617 305.046 107.136C270.057 104.369 212.949 96.4625 136.386 74.7087C104.466 65.6393 69.1562 54.1545 30.6671 39.6311C126.212 59.9962 199.503 76.242 249.953 87.6382L249.965 87.6585ZM312.99 102.098C314.041 104.054 315.128 106.003 316.208 107.915C314.696 107.827 313.115 107.737 311.475 107.613C310.466 105.447 309.462 103.265 308.488 101.041C309.737 101.327 310.933 101.616 312.086 101.875C312.389 101.962 312.686 102.012 312.978 102.078L312.99 102.098ZM618.164 148.098L617.428 150.81L617.444 150.814L617.54 150.842C620.113 151.573 655.804 161.901 698.889 184.445C718.474 194.673 739.548 207.443 759.765 222.925C756.716 225.082 754.023 227.084 751.734 228.877C729.727 215.381 706.857 203.946 685.78 194.591C641.752 175.061 605.614 164.605 601.73 163.501C601.522 163.442 601.41 163.41 601.394 163.406C601.394 163.406 565.557 153.411 518.654 143.331C494.622 138.176 467.693 133.002 441.141 129.114C442.216 128.616 443.285 128.134 444.376 127.641C475.137 126.986 506.777 129.928 534.428 133.958C558.099 137.404 578.876 141.616 593.714 144.96C601.131 146.641 607.076 148.091 611.151 149.129C613.195 149.658 614.754 150.067 615.829 150.356C616.889 150.64 617.432 150.794 617.432 150.794L618.2 148.091L618.164 148.098ZM828.226 249.603C829.295 249.428 830.348 249.249 831.449 249.083C863.198 244.284 908.708 243.582 964.811 259.523C1007.58 271.676 1056.53 293.527 1110.22 330.682C1061.88 305.28 1017.97 288.379 979.258 277.379C915.546 259.277 865.914 257.099 833.561 258.977C831.821 255.8 830.046 252.682 828.238 249.623L828.226 249.603ZM977.706 282.781C1017.83 294.18 1063.65 312.001 1114.33 339.248C1077.91 325.669 1044.35 314.82 1013.85 306.154C934.573 283.628 875.937 275.869 840.911 273.297C839.467 270.29 837.99 267.342 836.484 264.437C868.283 262.863 916.343 265.346 977.722 282.785L977.706 282.781ZM966.336 254.096C908.49 237.661 861.538 238.636 829.01 243.744C827.654 243.956 826.378 244.192 825.074 244.402C823.074 241.169 821.046 238.03 818.989 234.934C819.907 234.683 820.821 234.447 821.739 234.195C854.354 225.798 900.69 221.522 956.794 237.462C1000.94 250.006 1051.16 275.09 1105.52 320.651C1054.44 286.408 1007.61 265.807 966.324 254.076L966.336 254.096ZM819.107 245.525C816.525 246.039 814.06 246.568 811.711 247.114C809.635 244.389 807.505 241.733 805.361 239.126C807.884 238.271 810.512 237.412 813.268 236.589C815.237 239.506 817.189 242.486 819.086 245.537L819.107 245.525ZM805.709 248.603C803.415 249.198 801.237 249.81 799.201 250.41C797.066 248.197 794.917 246.032 792.723 243.905C794.917 242.991 797.237 242.062 799.726 241.146C801.745 243.582 803.748 246.081 805.709 248.603ZM788.266 239.65C785.96 237.491 783.624 235.375 781.264 233.287C783.733 231.955 786.388 230.574 789.217 229.191C791.451 231.603 793.66 234.041 795.831 236.554C793.137 237.583 790.613 238.625 788.254 239.629L788.266 239.65ZM782.681 242.163C780.348 243.259 778.259 244.289 776.398 245.246C774.057 243.573 771.712 241.916 769.327 240.282C771.31 239.017 773.566 237.642 776.025 236.223C778.252 238.171 780.476 240.135 782.665 242.158L782.681 242.163ZM766.702 250.794C764.289 249.561 761.855 248.34 759.416 247.135C760.521 246.287 762.139 245.09 764.24 243.654C766.472 245.159 768.696 246.697 770.899 248.245C768.874 249.412 767.466 250.294 766.702 250.794ZM548.82 217.484C548.82 217.484 548.708 217.453 548.5 217.394C544.792 216.34 508.862 205.943 465.204 186.569C444.847 177.539 422.839 166.536 401.623 153.658C404.411 151.324 406.08 149.765 406.594 149.296C407.137 148.904 407.687 148.548 408.226 148.171C431.089 158.596 454.784 167.977 476.622 175.992C520.644 192.139 557.069 202.677 563.751 204.575C564.47 204.779 564.838 204.884 564.838 204.884C564.838 204.884 566.212 205.274 568.774 205.985C576.471 208.138 594.855 213.293 618.719 220.074C648.033 228.403 685.616 239.184 721.849 249.854C720.063 250.85 718.266 251.826 716.477 252.77C687.538 248.835 657.611 243.15 631.22 237.48C607.857 232.465 587.252 227.465 572.494 223.716C565.115 221.841 559.202 220.28 555.124 219.19C553.085 218.645 551.514 218.216 550.455 217.932C549.4 217.632 548.84 217.473 548.84 217.473L548.82 217.484ZM381.987 135.523C384.401 136.755 386.835 137.976 389.274 139.182C388.169 140.029 386.551 141.227 384.45 142.663C382.217 141.157 379.994 139.62 377.791 138.072C379.815 136.904 381.223 136.023 381.987 135.523ZM394.46 142.329C394.681 142.221 394.881 142.124 395.102 142.016C397.517 143.181 399.937 144.33 402.378 145.468C401.599 146.203 399.6 148.01 396.501 150.528C394.154 149.059 391.817 147.558 389.5 146.045C392.162 144.154 393.837 142.819 394.464 142.314L394.46 142.329ZM401.663 138.926C403.504 138.1 405.373 137.298 407.233 136.529C409.114 137.08 410.991 137.648 412.889 138.204C411.115 139.34 409.353 140.496 407.598 141.689C405.614 140.767 403.626 139.86 401.663 138.926ZM620.239 214.663C588.399 205.616 566.326 199.464 566.326 199.464C566.326 199.464 565.958 199.36 565.255 199.16C558.669 197.289 522.351 186.799 478.537 170.711C457.807 163.113 435.387 154.231 413.669 144.456C415.814 143.05 417.965 141.679 420.155 140.354C457.973 151.526 497.73 162.925 528.435 171.649C560.275 180.696 582.348 186.848 582.348 186.848C582.348 186.848 582.7 186.948 583.403 187.148C589.988 189.019 626.307 199.509 670.121 215.596C690.85 223.195 713.271 232.076 734.988 241.851C732.844 243.258 730.693 244.628 728.502 245.953C690.685 234.781 650.928 223.383 620.223 214.658L620.239 214.663ZM600.622 166.125L599.886 168.837C599.886 168.837 599.981 168.864 600.189 168.923C603.897 169.977 639.828 180.373 683.47 199.743C703.827 208.773 725.835 219.776 747.051 232.654C744.263 234.988 742.594 236.547 742.08 237.016C741.537 237.408 740.987 237.764 740.448 238.141C717.585 227.716 693.889 218.335 672.052 210.32C628.03 194.173 591.604 183.635 584.923 181.737C584.22 181.537 583.852 181.433 583.836 181.428C583.836 181.428 582.461 181.038 579.899 180.327C572.202 178.174 553.819 173.019 529.955 166.238C500.64 157.909 463.057 147.128 426.825 136.458C428.61 135.462 430.408 134.486 432.196 133.542C461.135 137.477 491.063 143.162 517.454 148.832C540.817 153.847 561.421 158.847 576.179 162.596C583.558 164.471 589.472 166.032 593.549 167.122C595.588 167.667 597.159 168.096 598.219 168.38C599.278 168.664 599.833 168.839 599.833 168.839L600.601 166.136L600.622 166.125ZM741.056 244.634C743.039 245.557 745.027 246.463 746.99 247.397C745.149 248.223 743.28 249.025 741.42 249.795C739.539 249.243 737.662 248.675 735.764 248.119C737.538 246.983 739.3 245.827 741.056 244.634ZM746.291 240.86C747.07 240.125 749.069 238.318 752.168 235.799C754.515 237.269 756.852 238.77 759.169 240.283C756.507 242.174 754.832 243.509 754.205 244.014C754 244.127 753.784 244.219 753.563 244.327C751.147 243.163 748.727 242.014 746.287 240.876L746.291 240.86ZM764.221 236.849C761.778 235.233 759.322 233.664 756.862 232.11C759.066 230.431 761.599 228.571 764.42 226.605C766.786 228.49 769.128 230.402 771.46 232.346C768.742 233.949 766.32 235.481 764.221 236.849ZM422.658 132.336C421.548 132.96 420.445 133.62 419.33 134.26C418.163 133.928 417.005 133.565 415.839 133.234C417.032 132.804 418.241 132.379 419.461 131.974C420.529 132.107 421.586 132.219 422.654 132.351L422.658 132.336ZM395.047 135.765C393.47 134.993 391.925 134.229 390.364 133.461C391.653 133.178 392.95 132.932 394.251 132.669C395.765 133.116 397.274 133.579 398.804 134.031C397.555 134.599 396.301 135.182 395.047 135.765ZM376.129 132.491C375.173 133.057 374.018 133.72 372.687 134.452C370.628 132.944 368.63 131.403 366.616 129.857C367.698 129.395 368.547 129.022 369.168 128.72C371.468 129.988 373.788 131.245 376.133 132.476L376.129 132.491ZM367.131 137.349C365.422 138.196 363.562 139.085 361.537 140.013C359.487 138.047 357.474 136.074 355.478 134.038C357.309 133.431 358.994 132.85 360.486 132.283C362.676 133.999 364.891 135.687 367.131 137.349ZM351.114 129.518C349.363 127.654 347.654 125.767 345.949 123.865C347.241 123.634 348.412 123.403 349.51 123.186C351.435 124.86 353.37 126.503 355.345 128.124C354.022 128.585 352.631 129.044 351.114 129.518ZM345.094 131.31C343.254 131.829 341.309 132.353 339.247 132.86C337.499 130.501 335.76 128.111 334.07 125.666C335.967 125.436 337.715 125.181 339.374 124.935C341.249 127.091 343.149 129.22 345.078 131.305L345.094 131.31ZM333.262 134.286C331.089 134.762 328.778 135.233 326.404 135.686C324.695 132.825 322.994 129.933 321.337 126.951C323.562 126.781 325.691 126.583 327.715 126.389C329.531 129.057 331.388 131.703 333.262 134.286ZM320.438 136.741C319.369 136.916 318.317 137.095 317.216 137.26C285.467 142.06 239.957 142.762 183.853 126.821C141.081 114.668 92.1324 92.8164 38.4576 55.6821C86.7942 81.0839 130.69 97.9805 169.419 108.985C233.13 127.087 282.762 129.265 315.115 127.387C316.856 130.564 318.63 133.682 320.438 136.741ZM318.385 121.534C316.991 118.9 315.611 116.219 314.26 113.495C316.126 113.615 317.896 113.708 319.602 113.783C321.093 116.256 322.618 118.671 324.168 121.059C322.306 121.23 320.38 121.383 318.369 121.53L318.385 121.534ZM307.754 113.047C309.197 116.054 310.674 119.002 312.181 121.907C280.381 123.48 232.321 120.998 170.943 103.558C130.824 92.1589 84.997 74.3378 34.317 47.0915C70.7425 60.6698 104.299 71.5195 134.796 80.1847C214.076 102.711 272.711 110.47 307.738 113.042L307.754 113.047ZM182.329 132.247C240.175 148.683 287.127 147.708 319.655 142.6C321.01 142.387 322.287 142.152 323.59 141.941C325.591 145.175 327.618 148.313 329.675 151.409C328.757 151.661 327.844 151.897 326.926 152.148C294.31 160.545 247.975 164.822 191.871 148.881C147.724 136.338 97.5002 111.254 43.1451 65.6923C94.2254 99.9199 141.054 120.537 182.34 132.268L182.329 132.247ZM329.558 140.818C332.14 140.305 334.605 139.775 336.954 139.23C339.03 141.955 341.16 144.61 343.304 147.218C340.781 148.073 338.153 148.932 335.397 149.755C333.427 146.838 331.476 143.857 329.578 140.807L329.558 140.818ZM342.956 137.741C345.25 137.145 347.428 136.534 349.464 135.934C351.599 138.146 353.748 140.311 355.942 142.438C353.747 143.352 351.428 144.282 348.939 145.198C346.919 142.762 344.917 140.262 342.956 137.741ZM360.399 146.694C362.705 148.853 365.04 150.968 367.401 153.057C364.932 154.388 362.277 155.769 359.448 157.152C357.214 154.741 355.005 152.302 352.834 149.789C355.527 148.761 358.052 147.719 360.41 146.714L360.399 146.694ZM365.984 144.181C368.317 143.084 370.406 142.055 372.267 141.097C374.607 142.77 376.952 144.427 379.338 146.062C377.339 147.322 375.099 148.701 372.64 150.121C370.412 148.173 368.189 146.208 366 144.186L365.984 144.181ZM384.439 149.51C386.882 151.127 389.338 152.696 391.799 154.249C389.594 155.929 387.062 157.789 384.24 159.755C381.869 157.885 379.532 155.957 377.2 154.013C379.918 152.411 382.34 150.878 384.439 149.51ZM726.002 254.024C727.112 253.4 728.215 252.739 729.33 252.099C730.497 252.431 731.655 252.794 732.821 253.126C731.612 253.551 730.419 253.981 729.199 254.385C728.131 254.253 727.075 254.141 726.007 254.008L726.002 254.024ZM753.613 250.594C755.19 251.367 756.736 252.13 758.297 252.899C757.007 253.181 755.71 253.428 754.409 253.69C752.895 253.243 751.386 252.78 749.856 252.328C751.105 251.761 752.359 251.177 753.613 250.594ZM772.531 253.868C773.487 253.302 774.642 252.64 775.973 251.908C778.032 253.415 780.03 254.957 782.044 256.502C780.963 256.964 780.114 257.338 779.492 257.64C777.193 256.371 774.872 255.114 772.527 253.884L772.531 253.868ZM781.53 249.011C783.239 248.164 785.098 247.274 787.123 246.346C789.173 248.312 791.187 250.285 793.182 252.321C791.351 252.929 789.666 253.509 788.175 254.076C785.985 252.361 783.77 250.672 781.53 249.011ZM797.546 256.841C799.297 258.705 801.006 260.592 802.711 262.494C801.419 262.725 800.248 262.956 799.15 263.174C797.225 261.499 795.29 259.856 793.315 258.236C794.638 257.775 796.03 257.316 797.546 256.841ZM803.566 255.05C805.406 254.53 807.351 254.007 809.413 253.499C811.161 255.858 812.901 258.249 814.59 260.693C812.693 260.923 810.945 261.178 809.286 261.424C807.411 259.268 805.511 257.14 803.566 255.05ZM815.398 252.074C817.571 251.598 819.882 251.127 822.256 250.674C823.965 253.534 825.666 256.426 827.323 259.408C825.098 259.579 822.969 259.777 820.945 259.97C819.129 257.302 817.272 254.656 815.398 252.074ZM830.271 264.841C831.664 267.475 833.045 270.156 834.395 272.88C832.529 272.76 830.759 272.667 829.053 272.593C827.562 270.119 826.037 267.704 824.487 265.316C826.35 265.145 828.276 264.992 830.287 264.846L830.271 264.841ZM843.644 279.181C878.633 281.948 935.74 289.854 1012.3 311.608C1044.22 320.677 1079.53 332.162 1118.02 346.685C1022.48 326.32 949.187 310.075 898.72 298.674C877.39 293.86 860.168 289.907 847.037 286.876C845.928 284.272 844.806 281.715 843.639 279.197L843.644 279.181ZM958.336 232.092C900.251 215.588 852.198 220.317 818.702 229.198C817.654 229.481 816.627 229.753 815.611 230.045C813.398 226.888 811.168 223.795 808.895 220.791C810.076 220.341 811.269 219.911 812.499 219.475C846.347 207.533 893.978 199.849 950.689 215.962C995.7 228.751 1046.52 256.585 1100.73 309.432C1049.06 267.794 1001.01 244.218 958.352 232.097L958.336 232.092ZM809.901 231.72C806.965 232.628 804.146 233.553 801.475 234.502C799.208 231.842 796.891 229.236 794.572 226.698C797.369 225.426 800.323 224.147 803.422 222.909C805.61 225.786 807.785 228.71 809.901 231.72ZM790.509 222.332C788.089 219.783 785.636 217.292 783.164 214.864C786.208 213.15 789.441 211.437 792.807 209.746C795.163 212.516 797.502 215.351 799.802 218.259C796.536 219.603 793.438 220.961 790.493 222.328L790.509 222.332ZM785.168 224.898C782.134 226.393 779.306 227.896 776.701 229.343C774.264 227.283 771.817 225.255 769.34 223.271C772.04 221.492 774.962 219.657 778.099 217.798C780.481 220.115 782.833 222.475 785.168 224.898ZM383.28 129.33C383.057 129.386 382.818 129.438 382.595 129.494C382.115 129.238 381.634 128.982 381.134 128.737C381.198 128.755 381.255 128.737 381.323 128.74C381.979 128.926 382.629 129.128 383.28 129.33ZM362.988 125.239C362.535 125.434 362.05 125.621 361.545 125.819C359.801 124.418 358.057 123.017 356.354 121.594C356.447 121.569 356.525 121.54 356.618 121.515C358.701 122.756 360.837 123.995 362.993 125.223L362.988 125.239ZM344.214 118.418C343.412 118.566 342.562 118.7 341.671 118.857C340.378 117.328 339.105 115.788 337.842 114.216C338.515 114.219 339.124 114.204 339.712 114.201C341.194 115.612 342.691 117.029 344.214 118.418ZM335.128 119.817C333.671 120.018 332.135 120.196 330.546 120.377C329.169 118.295 327.805 116.164 326.482 114.012C327.935 114.066 329.308 114.097 330.612 114.126C332.103 116.053 333.607 117.933 335.148 119.806L335.128 119.817ZM309.572 95.5235C308.339 95.2416 307.074 94.9506 305.746 94.6414C305.253 93.4592 304.78 92.2657 304.295 91.0518C305.731 91.7159 307.065 92.3684 308.297 92.9576C308.711 93.8099 309.142 94.6667 309.572 95.5235ZM190.353 154.224C248.439 170.728 296.492 166 329.988 157.118C331.036 156.835 332.063 156.563 333.079 156.271C335.291 159.428 337.522 162.522 339.795 165.525C338.613 165.975 337.42 166.405 336.191 166.842C302.343 178.784 254.711 186.467 198 170.354C152.99 157.565 102.166 129.731 47.9631 76.8841C99.6326 118.522 147.676 142.098 190.337 154.22L190.353 154.224ZM338.789 154.597C341.724 153.688 344.544 152.764 347.215 151.814C349.482 154.474 351.799 157.08 354.118 159.618C351.321 160.891 348.366 162.169 345.268 163.407C343.08 160.531 340.905 157.606 338.789 154.597ZM358.181 163.984C360.6 166.534 363.054 169.025 365.525 171.452C362.481 173.167 359.248 174.879 355.883 176.571C353.526 173.8 351.187 170.966 348.887 168.057C352.154 166.713 355.252 165.356 358.197 163.989L358.181 163.984ZM363.522 161.419C366.56 159.907 369.383 158.421 371.988 156.974C374.426 159.033 376.873 161.061 379.333 163.041C376.634 164.82 373.712 166.655 370.575 168.514C368.193 166.197 365.84 163.837 363.506 161.414L363.522 161.419ZM765.409 256.987C765.633 256.93 765.872 256.879 766.095 256.823C766.575 257.079 767.055 257.335 767.556 257.579C767.492 257.561 767.435 257.579 767.366 257.577C766.711 257.391 766.06 257.189 765.409 256.987ZM785.702 261.078C786.154 260.882 786.639 260.695 787.145 260.497C788.889 261.898 790.633 263.299 792.336 264.723C792.242 264.747 792.165 264.776 792.071 264.801C789.988 263.56 787.853 262.321 785.697 261.094L785.702 261.078ZM804.475 267.898C805.278 267.751 806.128 267.616 807.019 267.459C808.312 268.988 809.584 270.529 810.848 272.101C810.175 272.097 809.566 272.112 808.978 272.116C807.496 270.704 805.998 269.288 804.475 267.898ZM813.562 266.5C815.018 266.299 816.554 266.12 818.143 265.939C819.521 268.022 820.885 270.152 822.208 272.305C820.755 272.251 819.382 272.219 818.077 272.19C816.586 270.263 815.082 268.384 813.541 266.511L813.562 266.5ZM839.118 290.793C840.35 291.075 841.615 291.366 842.944 291.675C843.437 292.857 843.91 294.051 844.394 295.265C842.959 294.601 841.624 293.948 840.393 293.359C839.978 292.507 839.548 291.65 839.118 290.793ZM803.449 204.757C838.692 189.3 887.86 178.277 945.503 194.638C991.073 207.586 1042.08 237.745 1095.68 296.808C1044.28 248.926 995.742 222.887 952.234 210.525C893.286 193.776 843.696 202.15 808.923 214.735C807.693 215.171 806.491 215.632 805.293 216.078C802.908 213.043 800.505 210.071 798.059 207.189C799.816 206.356 801.605 205.532 803.453 204.741L803.449 204.757ZM601.965 106.134C617.231 107.67 629.883 109.83 638.703 111.618C643.113 112.512 646.551 113.301 648.896 113.865C650.06 114.145 650.96 114.383 651.556 114.535C651.859 114.622 652.083 114.685 652.227 114.726C652.371 114.767 652.435 114.785 652.435 114.785L653.203 112.082L652.515 114.808L652.949 113.035L652.483 114.799C654.033 115.239 689.4 125.493 731.099 154.253C749.93 167.257 770.057 184.029 788.97 205.375C785.436 207.173 782.071 208.984 778.911 210.803C758.767 191.72 737.532 176.479 717.812 164.538C674.768 138.504 638.826 128.087 636.545 127.422L636.433 127.39C636.321 127.358 600.312 117.298 551.763 113.498C531.551 111.923 509.158 111.454 486.265 113.235C487.008 113.053 487.755 112.855 488.513 112.678C530.394 102.557 571.428 103.078 601.976 106.154L601.965 106.134ZM332.105 106.624C332.73 107.28 333.392 107.929 334.034 108.59C333.828 108.583 333.603 108.587 333.381 108.575C332.877 107.919 332.397 107.236 331.897 106.565C331.961 106.583 332.041 106.606 332.089 106.619L332.105 106.624ZM272.758 57.5937C274.375 59.078 275.884 60.5148 277.329 61.9333C260.789 52.177 238.036 41.4244 208.338 32.9863C163.583 20.2701 103.125 12.8466 24.7557 22.0128C98.6265 1.19889 154.569 3.90551 195.839 15.6317C231.899 25.8773 256.826 43.0219 272.763 57.5779L272.758 57.5937ZM345.212 181.602C309.968 197.06 260.8 208.082 203.158 191.721C157.587 178.774 106.594 148.619 52.9998 89.556C104.403 137.422 152.934 163.477 196.426 175.835C255.374 192.584 304.965 184.209 339.737 171.625C340.967 171.188 342.169 170.727 343.367 170.281C345.752 173.317 348.155 176.289 350.601 179.17C348.844 180.004 347.06 180.812 345.207 181.618L345.212 181.602ZM546.696 280.226C531.43 278.69 518.777 276.53 509.957 274.741C505.547 273.847 502.109 273.058 499.764 272.494C498.6 272.215 497.7 271.976 497.104 271.824C496.801 271.738 496.577 271.674 496.433 271.633C496.289 271.592 496.225 271.574 496.225 271.574L496.161 271.556C494.611 271.116 459.245 260.862 417.545 232.101C398.715 219.098 378.588 202.326 359.674 180.979C363.208 179.182 366.573 177.37 369.733 175.552C389.877 194.635 411.112 209.876 430.832 221.817C473.876 247.85 509.818 258.268 512.099 258.933L512.195 258.96C512.339 259.001 548.332 269.057 596.881 272.857C617.093 274.432 639.486 274.901 662.379 273.12C661.637 273.302 660.89 273.5 660.131 273.677C618.25 283.798 577.216 283.277 546.668 280.201L546.696 280.226ZM816.555 279.736C815.93 279.08 815.268 278.43 814.626 277.77C814.832 277.777 815.058 277.773 815.279 277.784C815.783 278.44 816.263 279.123 816.763 279.795C816.699 279.777 816.619 279.754 816.571 279.74L816.555 279.736ZM875.902 328.766C874.285 327.281 872.776 325.845 871.335 324.41C887.876 334.167 910.628 344.919 940.326 353.357C985.081 366.074 1045.54 373.497 1123.91 364.331C1050.04 385.145 994.096 382.438 952.825 370.712C916.766 360.466 891.839 343.322 875.902 328.766Z" fill="url(#paint0_linear_4471_27527)"/>
<defs>
<linearGradient id="paint0_linear_4471_27527" x1="-1.06512" y1="29.6583" x2="1149.78" y2="356.647" gradientUnits="userSpaceOnUse">
<stop offset="0.14" stop-color="#FFF200"/>
<stop offset="0.26" stop-color="#F58220"/>
<stop offset="0.3" stop-color="#F58220"/>
<stop offset="0.37" stop-color="#08B798"/>
<stop offset="0.65" stop-color="#00B49D"/>
<stop offset="0.7" stop-color="#F58220"/>
<stop offset="0.75" stop-color="#F58220"/>
<stop offset="1" stop-color="#C6168D"/>
</linearGradient>
</defs>
</svg>
