<svg width="354" height="501" viewBox="0 0 354 501" fill="none" xmlns="http://www.w3.org/2000/svg">
<path opacity="0.16" d="M37.59 70.1303C31.74 63.8873 26.1801 57.4063 20.8101 50.7669C24.6201 62.0033 28.0501 73.4023 30.5501 85.0103C21.6601 70.6793 14.4 55.3973 7.59 40.0165L4.28006 32.3025L1.10001 24.55C0.120005 22.168 1.27005 19.4323 3.65005 18.4544C5.71005 17.623 8.01003 18.342 9.25003 20.0999C12.4 24.5486 15.5001 29.0198 18.5201 33.5677C26.1 44.9373 33.3101 56.5613 39.6801 68.6543C40.7801 70.7913 42.41 73.8923 43.38 76.0423C41.66 74.4123 39.24 71.8793 37.59 70.1303ZM69.5201 5.94511C67.8501 0.838509 60.32 2.04591 60.39 7.47691C61.01 26.6681 62.35 45.8976 66.5 64.7013C68.25 54.5423 69.08 44.3071 69.49 34.0378C71.56 39.336 73.75 44.5779 76.09 49.7093C78.13 54.1533 80.26 58.5703 82.72 62.8843C82.22 57.9483 81.4 53.1173 80.51 48.3012C77.79 34.0654 73.89 19.7732 69.5 5.95641L69.5201 5.94511ZM137.12 6.66651C138.28 1.28061 130.89 -1.36329 128.36 3.56951C118.53 23.6524 109.21 44.2536 102.72 65.6913C109.82 55.9743 116.15 45.7234 122.09 35.2448C120.64 44.1778 119.46 53.1513 118.68 62.1523C118.49 64.5883 118.2 68.1593 118.15 70.5463C119.12 68.3403 120.36 64.9803 121.21 62.7083C127.87 44.4825 132.86 25.5666 137.13 6.64851L137.12 6.66651ZM205.98 22.374L196.09 29.2151C173.2 45.3894 150.37 62.1453 129.29 80.6223C144.34 72.7543 158.96 64.0473 173.34 55.0033C164.54 64.2243 155.91 73.6163 147.6 83.2263C145.33 85.8723 142.03 89.7523 139.91 92.4343C142.69 90.4103 146.68 87.2203 149.39 85.0903C171.11 67.7153 191.81 48.8453 211.88 29.5993C215.94 25.5702 210.75 19.2059 205.98 22.374ZM178.64 100.901C169.04 105.035 159.42 109.12 149.95 113.631C160.13 111.09 170.16 108.148 180.2 105.248C205.06 97.8903 230.15 89.5893 254.65 81.0483L269.39 75.8193C271.57 75.0533 272.9 72.7563 272.38 70.4223C271.83 67.8913 269.33 66.3003 266.8 66.8523C256.74 69.0443 246.68 71.2783 236.65 73.6243C206.52 80.6953 176.51 88.2403 146.98 97.5093C168.79 94.8453 190.43 91.2973 212.02 87.3213C200.78 91.7423 189.61 96.2753 178.61 100.912L178.64 100.901ZM248.16 134.003C231.25 134.119 214.34 134.364 197.59 134.748C182.35 135.164 167.09 135.555 151.85 136.379C167.06 137.619 182.31 138.459 197.53 139.309C235.31 141.277 273.89 142.512 311.78 143.284L334.64 143.686C337.03 143.72 339.13 141.915 339.36 139.475C339.63 136.901 337.75 134.614 335.16 134.366L312.05 132.059C258.19 126.924 203.89 122.327 149.85 120.128C182.4 125.46 215.26 129.981 248.16 134.022V134.003ZM255.15 186.106C235.44 180.696 215.75 175.415 196.22 170.358C179.22 166.024 162.23 161.653 145.11 157.703C161.63 163.647 178.28 169.188 194.92 174.764C236.25 188.421 278.66 201.619 320.42 214.14L345.65 221.619C347.96 222.302 350.47 221.103 351.35 218.802C352.26 216.387 351.05 213.691 348.64 212.767C283.4 187.994 216.48 163.311 150.1 141.913C184.47 157.238 219.86 171.917 255.14 186.124L255.15 186.106ZM143.58 165.025C177.72 191.716 212.75 218.081 248.02 244.064C228.41 232.254 208.68 220.501 189.83 209.432C171.64 198.832 153.47 188.222 135.07 177.955C160.06 195.296 188.24 213.894 213.77 230.676C247.77 252.932 285.57 277.108 320.05 298.828L346.8 315.594C348.89 316.89 351.66 316.365 353.1 314.335C354.59 312.221 354.1 309.303 352 307.817C339.2 298.703 313.3 280.384 300.42 271.365C249.06 235.469 196.15 198.992 143.57 165L143.58 165.025ZM329.29 409.297C264.33 333.745 197.34 256.838 129.78 183.681C163.39 226.005 198.13 268.297 233.21 310.243C212.39 289.06 191.31 267.776 171.24 247.755C153.43 230.083 135.63 212.394 117.53 195.004C141.51 222.184 168.72 251.829 193.4 278.614C226.26 314.177 262.93 353.123 296.39 388.355L322.37 415.566C326.74 419.834 333.07 413.922 329.3 409.304L329.29 409.297ZM261.8 493.793C249.31 469.172 217.11 405.668 204.77 381.906C173.12 320.499 140.14 257.422 106.91 196.865C130.07 247.008 154.59 298.176 179.54 349.178C165.93 325.636 151.9 301.55 138.85 279.327C124.88 255.693 110.93 232.066 96.6 208.626C109.11 233.071 121.99 257.304 134.86 281.555C159.88 328.471 187.79 379.673 213.5 426.231L253.53 498.178C254.75 500.362 257.49 501.225 259.73 500.071C262.04 498.902 262.95 496.096 261.78 493.787L261.8 493.793Z" fill="url(#paint0_radial_3967_47176)"/>
<defs>
<radialGradient id="paint0_radial_3967_47176" cx="0" cy="0" r="1" gradientUnits="userSpaceOnUse" gradientTransform="translate(168.05 214.099) rotate(35.8457) scale(217.368 217.176)">
<stop stop-color="#F47920"/>
<stop offset="0.16" stop-color="#F17226"/>
<stop offset="0.38" stop-color="#EC6039"/>
<stop offset="0.64" stop-color="#E24257"/>
<stop offset="0.93" stop-color="#D51981"/>
<stop offset="1" stop-color="#D20F8C"/>
</radialGradient>
</defs>
</svg>
