<svg width="348" height="487" viewBox="0 0 348 487" fill="none" xmlns="http://www.w3.org/2000/svg">
<path opacity="0.26" d="M311.077 417.928C316.83 423.968 322.311 430.248 327.603 436.668C323.776 425.738 320.35 414.648 317.8 403.358C326.597 417.258 333.814 432.088 340.601 447.028L343.888 454.518L347.069 462.048C348.048 464.378 346.955 467.038 344.626 468.008C342.63 468.848 340.361 468.148 339.152 466.468C336.045 462.158 332.977 457.828 329.992 453.408C322.519 442.388 315.362 431.128 309.036 419.388C307.952 417.318 306.336 414.308 305.359 412.198C307.037 413.758 309.426 416.218 311.06 417.918L311.077 417.928ZM280.521 480.798C282.196 485.778 289.533 484.528 289.41 479.238C288.622 460.528 287.146 441.798 282.934 423.488C281.314 433.418 280.594 443.398 280.289 453.418C278.215 448.268 276.036 443.178 273.707 438.198C271.673 433.878 269.562 429.598 267.132 425.398C267.665 430.208 268.511 434.908 269.412 439.598C272.188 453.448 276.127 467.358 280.521 480.798ZM214.648 480.658C213.574 485.928 220.805 488.438 223.207 483.608C232.61 463.928 241.506 443.778 247.645 422.818C240.806 432.348 234.731 442.408 229.032 452.668C230.376 443.928 231.451 435.168 232.118 426.408C232.279 424.028 232.533 420.558 232.571 418.218C231.637 420.378 230.471 423.658 229.654 425.898C223.318 443.728 218.642 462.198 214.643 480.708L214.648 480.658ZM147.375 465.948L156.958 459.178C179.141 443.218 201.219 426.688 221.614 408.488C207.007 416.298 192.859 424.908 178.926 433.848C187.435 424.788 195.747 415.548 203.755 406.108C205.939 403.518 209.131 399.688 211.163 397.078C208.478 399.068 204.621 402.218 201.987 404.328C180.975 421.438 160.969 440.028 141.576 458.978C137.641 462.948 142.775 469.088 147.381 465.968L147.375 465.948ZM173.315 389.128C182.649 385.018 191.978 380.958 201.164 376.488C191.26 379.038 181.525 381.998 171.758 384.928C147.587 392.308 123.206 400.628 99.4067 409.158L85.0667 414.398C82.9417 415.168 81.6787 417.418 82.1927 419.688C82.7477 422.148 85.1917 423.678 87.6637 423.108C97.4477 420.888 107.238 418.618 116.993 416.258C146.286 409.088 175.476 401.488 204.183 392.198C182.958 394.978 161.886 398.638 140.883 402.698C151.803 398.298 162.655 393.788 173.321 389.158L173.315 389.128ZM105.24 357.448C121.748 357.188 138.204 356.818 154.543 356.298C169.394 355.758 184.262 355.238 199.121 354.318C184.269 353.238 169.426 352.548 154.566 351.848C117.704 350.268 80.0987 349.378 43.1737 348.948L20.8807 348.768C18.5497 348.748 16.5167 350.528 16.2997 352.918C16.0777 355.418 17.9227 357.638 20.4287 357.868L42.9637 359.918C95.5187 364.468 148.489 368.488 201.179 370.178C169.403 365.258 137.325 361.128 105.229 357.468L105.24 357.448ZM97.9677 306.698C117.222 311.808 136.453 316.798 155.548 321.558C172.161 325.648 188.763 329.758 205.485 333.468C189.318 327.808 173.043 322.548 156.779 317.258C116.361 304.298 74.9117 291.778 34.0997 279.938L9.45868 272.858C7.18368 272.208 4.75469 273.408 3.92769 275.658C3.05069 278.018 4.26668 280.648 6.62668 281.498C70.4327 305.098 135.892 328.598 200.791 348.918C167.154 334.268 132.515 320.258 97.9957 306.698H97.9677ZM206.907 326.308C173.383 300.578 139.022 275.168 104.391 250.128C123.618 261.478 142.963 272.768 161.43 283.398C179.263 293.568 197.073 303.778 215.099 313.618C190.581 296.908 162.952 279.028 137.908 262.868C104.583 241.458 67.4987 218.208 33.6977 197.31L7.46769 181.191C5.41769 179.941 2.72169 180.483 1.34469 182.47C-0.0883142 184.541 0.413684 187.376 2.48768 188.811C15.0537 197.595 40.4617 215.218 53.0837 223.918C103.463 258.478 155.356 293.598 206.935 326.298L206.907 326.308ZM23.6827 89.7242C87.6887 162.823 153.662 237.258 220.189 307.998C187.049 267.018 152.808 226.078 118.233 185.487C138.703 205.968 159.453 226.538 179.21 245.898C196.73 262.968 214.239 280.058 232.054 296.868C208.427 270.578 181.64 241.908 157.351 215.998C125.009 181.6 88.9187 143.945 55.9747 109.874L30.3967 83.5802C26.0887 79.4492 19.9937 85.2772 23.6887 89.7522L23.6827 89.7242ZM88.7197 6.75823C101.108 30.6542 133.088 92.3082 145.314 115.349C176.736 174.951 209.457 236.178 242.366 294.948C219.355 246.268 194.984 196.574 170.2 147.068C183.665 169.912 197.57 193.261 210.495 214.838C224.324 237.748 238.142 260.678 252.299 283.428C239.873 259.698 227.096 236.168 214.347 212.642C189.531 167.114 161.873 117.431 136.4 72.2432L96.7267 2.42821C95.5147 0.30621 92.8417 -0.509769 90.6637 0.638231C88.4307 1.79823 87.5627 4.55324 88.7247 6.78624L88.7197 6.75823Z" fill="url(#paint0_radial_3967_47177)"/>
<defs>
<radialGradient id="paint0_radial_3967_47177" cx="0" cy="0" r="1" gradientUnits="userSpaceOnUse" gradientTransform="translate(188.749 267.558) rotate(-154.033) scale(214.578 214.312)">
<stop offset="0.3" stop-color="#FDEE00"/>
<stop offset="0.36" stop-color="#F2EB06"/>
<stop offset="0.47" stop-color="#D5E416"/>
<stop offset="0.61" stop-color="#A6D831"/>
<stop offset="0.77" stop-color="#66C956"/>
<stop offset="0.96" stop-color="#14B585"/>
<stop offset="1" stop-color="#00B091"/>
</radialGradient>
</defs>
</svg>
