<svg width="28" height="28" viewBox="0 0 28 28" fill="none" xmlns="http://www.w3.org/2000/svg">
<path d="M14.0936 0V1.56246H14.1107C17.5108 1.56636 20.636 2.83976 22.9116 5.14751C25.1911 7.45995 26.4436 10.6341 26.4382 14.0848C26.4272 21.1268 21.078 26.4375 13.9959 26.4375H13.9725C13.9483 26.4375 13.9233 26.4375 13.8999 26.4375C10.5279 26.4375 7.4082 25.1641 5.11546 22.8509C2.79694 20.5127 1.53577 17.3159 1.5631 13.8481C1.59044 10.4638 2.87347 7.35292 5.17559 5.08736C7.4863 2.81398 10.6537 1.56168 14.0943 1.56168V0M14.0943 0C6.11736 0 0.0645415 5.98655 0.000506955 13.8363C-0.0643084 21.9072 6.09394 28 13.8991 28C13.9257 28 13.9538 28 13.9811 28H13.9959C21.9339 28 27.9875 21.9877 28 14.0879C28.0125 6.09592 22.012 0.00937474 14.1123 0H14.0936H14.0943Z" fill="white"/>
<path d="M15.3785 20.1904C15.511 20.2766 15.624 20.3496 15.7674 20.4421C15.2956 21.3666 14.749 22.2111 14.0396 22.9238C13.5916 23.3739 13.0968 23.7558 12.4926 23.8946C12.1483 23.9738 11.7781 24.031 11.4346 23.9816C10.3434 23.824 9.79608 22.9183 10.0698 21.6614C10.3305 20.464 10.6733 19.2879 10.9808 18.1023C11.3661 16.6187 11.7536 15.1352 12.1346 13.65C12.1728 13.5018 12.1857 13.3434 12.1944 13.189C12.2196 12.7177 12.0021 12.3994 11.5714 12.3115C11.3539 12.2676 11.1285 12.2739 10.9009 12.2567C10.9182 11.9179 11.032 11.7423 11.3834 11.6874C12.6654 11.4882 13.9402 11.2357 15.22 11.0193C15.4584 10.9793 15.7076 11.0138 16 11.0138C15.8761 11.4867 15.7566 11.9391 15.6377 12.3915C14.8628 15.3359 14.0878 18.2795 13.3143 21.2246C13.2805 21.3525 13.225 21.4912 13.2437 21.6136C13.2711 21.7939 13.3143 22.0284 13.4303 22.1193C13.5289 22.1962 13.7853 22.1648 13.8927 22.0723C14.1699 21.8331 14.4206 21.55 14.6496 21.2544C14.9053 20.9251 15.1249 20.5628 15.3785 20.1888V20.1904Z" fill="white"/>
<path d="M15.4927 8.99999C14.1161 8.99704 12.9873 7.8622 13.0001 6.49213C13.0129 5.09548 14.1191 3.99705 15.5084 4.00001C16.8977 4.00296 18.0069 5.12008 18 6.50984C17.9941 7.90157 16.885 9.00295 15.4927 8.99999Z" fill="white"/>
</svg>
