<svg width="1440" height="569" viewBox="0 0 1440 569" fill="none" xmlns="http://www.w3.org/2000/svg">
<g opacity="0.51">
<path opacity="0.68" d="M442.671 422.206C433.233 411.138 424.115 399.771 416.165 387.839C433.226 400.542 448.647 414.915 463.579 429.512C467.91 433.761 473.884 439.925 478.133 444.323C480.359 446.611 480.115 450.033 477.585 451.943C475.393 453.595 472.22 453.579 469.979 452.073C464.206 448.241 458.477 444.413 452.83 440.438C438.654 430.522 424.832 420.193 411.826 409.068C409.216 406.838 406.634 404.552 404.129 402.176C407.422 403.596 410.615 405.123 413.783 406.686C423.622 411.548 433.248 416.76 442.671 422.206ZM389.559 457.514C382.725 450.223 375.625 443.139 368.116 436.365C365.841 434.327 363.521 432.303 361.083 430.346C362.428 432.992 363.871 435.551 365.382 438.098C375.845 455.754 388.273 472.44 401.536 488.567C405.81 493.575 414.5 489.641 412.143 483.697C403.264 462.778 393.44 441.976 380.349 422.695C382.522 434.456 385.736 446.031 389.561 457.494L389.559 457.514ZM335.223 434.157C330.526 447.299 327.118 460.85 324.196 474.431C322.209 464.08 319.863 453.769 317.015 443.583C316.121 440.435 315.206 437.285 314.113 434.135C313.595 440.603 313.525 447.039 313.563 453.506C313.693 469.539 314.862 485.622 316.596 501.607L317.731 511.184C318.008 513.641 320.166 515.727 323.057 516.106C326.408 516.552 329.461 514.519 329.857 511.564C330.645 505.908 331.781 497.977 332.385 492.38C334.524 473.097 336.085 453.616 335.201 434.155L335.223 434.157ZM244.483 495.692C262.652 473.415 280.421 450.705 296.061 426.911C280.812 440.757 266.473 455.462 252.531 470.404C259.5 457.185 266.172 443.837 272.345 430.378C274.296 426.135 276.161 421.864 277.943 417.545C272.035 425.038 266.507 432.728 261.06 440.485C247.573 459.802 234.914 479.695 222.818 499.725L215.634 511.805C214.264 514.091 214.98 517.025 217.449 518.692C220.166 520.522 223.985 520.096 225.984 517.739C231.475 511.26 239.19 502.192 244.461 495.69L244.483 495.692ZM157.177 459.133C149.117 464.483 133.048 475.326 125.066 480.782C122.678 482.395 122.032 485.402 123.649 487.783C125.4 490.374 129.171 491.256 132.034 489.772C148.757 481.171 167.089 471.621 183.467 462.71C211.822 447.29 239.968 431.534 267.055 414.435C241.239 424.871 216.044 436.37 191.059 448.205C208.281 435.66 225.22 422.852 241.696 409.799C246.728 405.818 251.678 401.77 256.59 397.659C245.121 403.986 233.926 410.655 222.77 417.387C200.636 430.831 178.658 444.917 157.177 459.133ZM44.1431 421.054L15.7475 428.538C12.7576 429.324 10.9638 432.056 11.676 434.813C12.438 437.732 15.7289 439.602 19.0322 439.005C51.9171 432.967 89.5815 425.8 122.187 419.243C166.205 410.328 210.439 401.044 253.941 390.47C211.453 395.784 168.903 402.325 126.67 409.232C161.569 399.192 196.31 388.764 230.709 377.772C235.351 376.257 239.989 374.781 244.615 373.206C236.341 374.852 224.006 377.544 215.716 379.346C158.12 392.018 101.01 406.21 44.1471 421.015L44.1431 421.054ZM243.905 347.379C198.066 345.842 152.264 345.445 106.454 345.34C73.6067 345.253 36.4581 345.54 3.4748 345.909L-30.8305 346.394C-33.9875 346.438 -36.5695 348.637 -36.688 351.484C-36.7987 354.469 -34.1554 357.015 -30.777 357.191C60.5956 361.917 153.083 365.956 244.442 366.549C195.383 361.602 145.937 357.614 96.4754 354.192C122.938 353.342 149.348 352.348 175.423 351.163C198.25 350.052 221.094 348.981 243.923 347.42L243.905 347.379ZM247.724 321.553C194.787 307.155 141.557 293.862 88.2113 280.832C49.9558 271.486 6.59528 261.277 -31.9462 252.332L-72.0808 243.124C-75.2031 242.408 -78.4054 243.955 -79.3326 246.678C-80.2938 249.516 -78.4357 252.568 -75.2018 253.492C29.8925 283.382 136.425 312.893 242.689 338.792C189.178 321.161 135.011 304.286 80.6586 287.919C109.478 294.07 138.27 300.061 166.753 305.825C193.698 311.213 220.664 316.623 247.724 321.553ZM262.188 296.677C205.181 266.776 147.561 237.849 89.8037 209.182C48.3641 188.616 1.28782 165.682 -40.5814 145.405L-84.195 124.397C-87.0491 123.023 -90.6182 123.827 -92.2719 126.279C-93.9776 128.805 -93.0143 132.136 -90.0925 133.713C22.3601 194.665 137.186 256.06 251.855 313.424C192.492 278.421 131.941 243.96 71.095 209.977C105.207 225.864 139.441 241.646 173.551 257.121C203.047 270.432 232.495 283.777 262.232 296.682L262.188 296.677ZM-42.5107 17.1227C61.28 109.057 167.512 202.068 274.484 290.945C224.189 243.254 172.741 195.757 120.858 148.607C147.391 169.697 173.96 190.655 200.119 211.08C227.37 232.305 254.62 253.549 282.218 274.437C230.502 229.301 177.949 184.96 125.175 140.83C74.848 98.7766 16.8512 51.0682 -34.1867 9.4498C-40.4062 4.78805 -47.9731 12.0109 -42.5347 17.1397L-42.5107 17.1227Z" fill="url(#paint0_radial_3446_45440)"/>
<path opacity="0.68" d="M1026.38 467.502C1034.54 455.177 1042.33 442.565 1049 429.388C1033.73 443.795 1020.13 459.893 1007.01 476.253C1003.19 481.001 997.974 487.902 994.27 492.816C992.325 495.38 992.821 499.029 995.385 500.974C997.586 502.653 1000.61 502.506 1002.66 500.781C1007.85 496.425 1013.03 492.048 1018.11 487.526C1030.85 476.242 1043.23 464.544 1054.77 452.023C1057.09 449.493 1059.37 446.943 1061.57 444.29C1058.55 445.972 1055.63 447.736 1052.72 449.563C1043.71 455.218 1034.96 461.225 1026.38 467.502ZM1079.68 503.198C1085.63 495.062 1091.84 487.131 1098.49 479.527C1100.51 477.235 1102.56 474.942 1104.75 472.752C1103.67 475.655 1102.49 478.477 1101.26 481.278C1092.64 500.721 1082.07 519.195 1070.69 537.118C1067 542.683 1058.42 538.823 1060.2 532.33C1067.04 509.454 1074.83 486.664 1085.81 465.364C1084.65 478.09 1082.47 490.691 1079.7 503.177L1079.68 503.198ZM1129.67 475.725C1135.15 489.66 1139.42 504.082 1143.26 518.555C1144.37 507.323 1145.82 496.147 1147.73 485.066C1148.34 481.626 1148.98 478.206 1149.77 474.782C1150.76 481.702 1151.32 488.63 1151.78 495.603C1152.88 512.846 1153 530.214 1152.58 547.467L1152.25 557.821C1152.16 560.473 1150.27 562.804 1147.55 563.345C1144.39 563.957 1141.34 561.917 1140.73 558.755C1139.53 552.702 1137.84 544.241 1136.83 538.226C1133.33 517.563 1130.33 496.7 1129.69 475.725L1129.67 475.725ZM1220.8 537.997C1201.79 514.816 1183.11 491.167 1166.4 466.256C1182 480.485 1196.79 495.699 1211.2 511.151C1203.55 497.241 1196.17 483.177 1189.25 468.957C1187.08 464.481 1184.96 459.961 1182.93 455.398C1189.13 463.197 1195 471.235 1200.76 479.339C1215.08 499.525 1228.68 520.378 1241.71 541.411L1249.48 554.078C1250.96 556.487 1250.5 559.672 1248.29 561.547C1245.83 563.638 1242.17 563.336 1240.08 560.877C1234.34 554.14 1226.3 544.717 1220.78 537.955L1220.8 537.997ZM1301.21 494.918C1309.31 500.323 1325.44 511.282 1333.46 516.814C1335.85 518.447 1336.72 521.647 1335.34 524.283C1333.86 527.132 1330.35 528.256 1327.51 526.78C1310.92 518.25 1292.73 508.764 1276.43 499.891C1248.23 484.536 1220.22 468.798 1193.1 451.591C1218.48 461.705 1243.38 472.965 1268.08 484.628C1250.72 471.866 1233.58 458.826 1216.9 445.502C1211.81 441.444 1206.76 437.301 1201.78 433.093C1213.18 439.418 1224.36 446.083 1235.5 452.855C1257.61 466.339 1279.63 480.54 1301.19 494.919L1301.21 494.918ZM1405.95 449.085L1433.58 455.914C1436.48 456.632 1438.41 459.494 1437.93 462.49C1437.42 465.655 1434.42 467.821 1431.25 467.318C1399.48 462.258 1363.03 456.159 1331.45 450.526C1288.83 442.831 1245.97 434.762 1203.74 425.271C1244.64 429.154 1285.65 434.338 1326.42 439.969C1292.39 430.686 1258.49 420.959 1224.91 410.615C1220.37 409.174 1215.82 407.796 1211.31 406.313C1219.31 407.724 1231.29 410.083 1239.31 411.662C1295.15 422.805 1350.64 435.617 1405.95 449.085ZM1210.02 378.474C1253.56 374.857 1297.17 372.459 1340.81 370.354C1372.09 368.842 1407.52 367.56 1438.96 366.529L1471.69 365.576C1474.69 365.513 1477.32 367.751 1477.64 370.794C1477.98 373.983 1475.64 376.85 1472.45 377.19C1385.76 386.224 1297.97 394.545 1210.98 399.106C1257.34 391.666 1304.13 385.248 1350.99 379.438C1325.71 379.668 1300.48 379.73 1275.55 379.574C1253.72 379.355 1231.87 379.199 1210.02 378.495L1210.02 378.474ZM1204.4 350.852C1253.73 333.088 1303.43 316.493 1353.25 300.191C1388.97 288.493 1429.52 275.642 1465.55 264.358L1503.07 252.728C1506 251.826 1509.17 253.337 1510.26 256.238C1511.39 259.242 1509.86 262.597 1506.84 263.732C1409.01 300.4 1309.76 336.719 1210.52 369.169C1260.15 347.907 1310.47 327.43 1361 307.475C1334.01 315.333 1307.04 323.022 1280.34 330.453C1255.08 337.392 1229.82 344.394 1204.4 350.873L1204.4 350.852ZM1188.72 324.722C1240.74 290.098 1293.42 256.534 1346.25 223.197C1384.15 199.298 1427.26 172.599 1465.59 148.985L1505.54 124.518C1508.16 122.928 1511.62 123.613 1513.38 126.185C1515.2 128.839 1514.52 132.47 1511.89 134.291C1409.44 204.683 1304.73 275.647 1199.89 342.281C1253.78 302.088 1308.81 262.397 1364.17 223.246C1332.88 241.813 1301.49 260.257 1270.17 278.362C1243.09 293.94 1216.06 309.559 1188.72 324.722ZM1457.59 10.9615C1365.73 114.298 1271.67 218.9 1176.55 319.086C1220.8 265.634 1266.19 212.326 1311.99 159.388C1288.32 183.202 1264.61 206.912 1241.26 229.983C1216.92 253.979 1192.58 277.996 1167.88 301.643C1213.68 250.871 1260.36 200.922 1307.26 151.179C1351.99 103.795 1403.58 49.9795 1449.02 3.02186C1454.58 -2.2672 1462.35 5.18449 1457.55 10.9413L1457.59 10.9615Z" fill="url(#paint1_radial_3446_45440)"/>
</g>
<defs>
<radialGradient id="paint0_radial_3446_45440" cx="0" cy="0" r="1" gradientUnits="userSpaceOnUse" gradientTransform="translate(227.156 280.762) rotate(-105.757) scale(288.984 317.655)">
<stop stop-color="#F47920"/>
<stop offset="0.65" stop-color="#DC3069"/>
<stop offset="1" stop-color="#D20F8C"/>
</radialGradient>
<radialGradient id="paint1_radial_3446_45440" cx="0" cy="0" r="1" gradientUnits="userSpaceOnUse" gradientTransform="translate(1221 306.12) rotate(-79.9795) scale(307.165 307.165)">
<stop offset="0.3" stop-color="#FDEE00"/>
<stop offset="0.36" stop-color="#F2EB06"/>
<stop offset="0.47" stop-color="#D5E416"/>
<stop offset="0.61" stop-color="#A6D831"/>
<stop offset="0.77" stop-color="#66C956"/>
<stop offset="0.96" stop-color="#14B585"/>
<stop offset="1" stop-color="#00B091"/>
</radialGradient>
</defs>
</svg>
