<svg width="143" height="271" viewBox="0 0 143 271" fill="none" xmlns="http://www.w3.org/2000/svg">
<g opacity="0.2" clip-path="url(#clip0_3613_47743)">
<path d="M44.4002 -36.6532C55.2104 -33.4767 66.1481 -30.6295 77.245 -28.7298C63.3225 -36.617 48.54 -42.9195 33.6754 -48.8065C29.3603 -50.5191 23.1608 -52.7731 18.7492 -54.3693C16.4447 -55.2107 13.8975 -54.0301 13.0561 -51.7255C12.3269 -49.7451 13.113 -47.5739 14.829 -46.4702C19.167 -43.6678 23.5202 -40.8704 27.9547 -38.1843C39.036 -31.4337 50.336 -25.0424 62.0484 -19.4462C64.4131 -18.3208 66.783 -17.2309 69.2089 -16.227C67.3069 -18.0458 65.3642 -19.7836 63.3809 -21.4911C57.2387 -26.7864 50.8982 -31.8134 44.4002 -36.6532ZM30.3535 10.189C37.6169 12.6987 44.7886 15.4414 51.8226 18.5843C53.9444 19.5368 56.0763 20.5198 58.1623 21.6192C55.8055 21.4873 53.4844 21.2593 51.1685 20.9957C35.0686 19.0801 19.2358 15.5227 3.62253 11.251C-1.26081 9.81094 -0.373459 2.69605 4.75668 2.53487C22.9597 2.38694 41.3132 2.94899 59.2959 6.16637C49.7619 8.1732 40.0927 9.41432 30.3738 10.1992L30.3535 10.189ZM61.5885 40.4427C52.6668 47.5654 43.1183 53.9163 33.4336 59.9577C41.867 58.2476 50.3353 56.796 58.8383 55.7044C61.48 55.3705 64.1165 55.0721 66.7882 54.8802C61.9678 57.1508 57.0466 59.117 52.0698 61.0171C39.7522 65.6842 27.1269 69.6764 14.4619 73.2427L6.8438 75.3247C4.8911 75.8527 2.76906 75.0015 1.76439 73.139C0.608308 70.9721 1.40997 68.2923 3.57693 67.1363C7.71806 64.9048 13.5035 61.7746 17.6595 59.6902C31.9291 52.5031 46.4565 45.6358 61.5935 40.4579L61.5885 40.4427ZM36.672 120.818C49.2946 101.766 62.3326 82.8462 76.7316 65.0804C69.867 79.6438 62.1009 93.8301 54.0767 107.798C62.4949 99.1027 71.0851 90.57 79.8926 82.3369C82.6659 79.7477 85.4847 77.194 88.3541 74.6911C84.0623 80.9571 79.5225 87.035 74.9118 93.052C63.4183 108.016 51.2768 122.603 38.8776 136.82L31.3925 145.325C29.9697 146.944 27.5459 147.324 25.6831 146.133C23.6077 144.811 23.0054 142.073 24.3278 139.997C27.9493 134.307 33.0103 126.335 36.6974 120.792L36.672 120.818ZM86.1045 169.734C83.9854 176.852 79.6204 191.061 77.3899 198.147C76.7365 200.254 74.5995 201.603 72.3701 201.193C69.9632 200.757 68.3563 198.452 68.7924 196.045C71.2864 182.05 74.1129 166.662 76.9209 152.799C81.7785 128.803 86.9604 104.869 93.4088 81.241C91.7365 102.005 89.1216 122.676 86.1671 143.29C91.5689 127.775 97.2239 112.363 103.188 97.2194C105.002 92.6005 106.888 87.9918 108.834 83.4137C106.785 93.1417 104.438 102.783 102.004 112.419C97.1416 131.554 91.7368 150.784 86.0994 169.719L86.1045 169.734ZM143.007 235.765L144.232 257.427C144.359 259.698 142.707 261.748 140.415 262.067C137.997 262.412 135.745 260.709 135.4 258.29C131.955 234.002 128.22 206.079 125.236 181.808C121.278 149.028 117.538 115.991 114.973 83.0875C121.324 113.758 126.751 144.802 131.798 175.77C130.924 148.892 130.405 122.015 130.402 95.2207C130.435 91.5964 130.418 87.9721 130.487 84.353C131.254 90.4982 132.222 99.7512 132.873 105.952C137.285 149.134 140.405 192.44 143.007 235.765ZM150.479 77.1631C162.887 108.075 174.421 139.31 185.748 170.63C193.871 193.083 202.757 218.61 210.564 241.285L218.603 264.914C219.323 267.09 218.284 269.511 216.137 270.423C213.89 271.387 211.277 270.327 210.313 268.079C184.275 206.946 158.508 144.846 135.661 82.4887C151.487 114.6 166.664 147.246 181.414 180.085C175.574 161.722 169.866 143.35 164.385 125.156C159.645 109.199 154.854 93.2412 150.464 77.1681L150.479 77.1631ZM169.343 66.8685C193.356 98.8198 216.602 131.312 239.661 163.95C256.201 187.349 274.665 214.012 290.971 237.724L307.868 262.457C309.181 264.386 308.79 267.031 306.922 268.477C304.987 269.978 302.2 269.617 300.694 267.667C252.022 204.62 203.287 140.463 157.372 75.4394C184.002 106.829 210.214 138.896 236.092 171.227C224.31 153.328 212.655 135.404 201.248 117.617C190.523 100.77 179.753 83.9381 169.328 66.8736L169.343 66.8685ZM184.861 49.5766C221.764 79.7108 258.041 110.558 294.186 141.568C320.106 163.821 349.233 189.235 375.04 211.863L401.834 235.482C403.579 237.032 403.857 239.709 402.378 241.566C400.853 243.489 398.055 243.807 396.137 242.297C321.858 183.452 246.654 123.089 174.575 61.6589C215.953 91.8991 257.223 123.087 298.172 154.634C277.623 136.007 257.139 117.273 236.919 98.5192C219.492 82.2859 202.044 66.0932 184.861 49.5766ZM473.808 175.059C377.902 131.323 280.58 86.2663 186.237 39.4467C235.113 59.6921 284.14 80.7995 332.988 102.287C310.325 90.3862 287.729 78.43 265.679 66.5967C242.733 54.2494 219.773 41.9072 197 29.2156C244.271 51.1911 291.14 73.9919 337.907 96.9953C382.471 118.955 433.257 144.461 477.668 167.028C482.771 169.898 479.085 177.23 473.813 175.024L473.808 175.059Z" fill="url(#paint0_radial_3613_47743)"/>
</g>
<defs>
<radialGradient id="paint0_radial_3613_47743" cx="0" cy="0" r="1" gradientUnits="userSpaceOnUse" gradientTransform="translate(205.66 68.9257) rotate(-7.10024) scale(234.174 234.174)">
<stop offset="0.3" stop-color="#FDEE00"/>
<stop offset="0.36" stop-color="#F2EB06"/>
<stop offset="0.47" stop-color="#D5E416"/>
<stop offset="0.61" stop-color="#A6D831"/>
<stop offset="0.77" stop-color="#66C956"/>
<stop offset="0.96" stop-color="#14B585"/>
<stop offset="1" stop-color="#00B091"/>
</radialGradient>
<clipPath id="clip0_3613_47743">
<rect width="143" height="271" fill="white"/>
</clipPath>
</defs>
</svg>
