<svg width="271" height="200" viewBox="0 0 271 200" fill="none" xmlns="http://www.w3.org/2000/svg">
<path opacity="0.68" d="M240.462 33.5233C232.162 40.5928 224.06 47.94 216.642 55.9182C230.406 48.8251 243.342 40.1958 255.986 31.2799C259.659 28.6937 264.769 24.8685 268.399 22.1424C270.302 20.7223 270.695 18.0343 269.275 16.1319C268.058 14.492 265.884 13.9779 264.081 14.7824C259.513 16.8098 254.941 18.8521 250.416 21.0192C239.079 26.4142 227.916 32.1767 217.178 38.6943C215.014 40.0127 212.875 41.354 210.777 42.7861C213.258 42.21 215.694 41.5579 218.128 40.8569C225.67 38.6897 233.1 36.2199 240.462 33.5233ZM209.979 -2.67209C204.098 1.87897 198.077 6.23228 191.805 10.262C189.909 11.4753 187.983 12.6805 185.988 13.7869C187.344 11.9486 188.758 10.1901 190.199 8.45462C200.281 -3.56593 211.552 -14.5002 223.284 -24.8782C227.038 -28.069 232.328 -23.5803 229.74 -19.3411C220.214 -4.52431 210.033 10.0382 197.899 22.8934C201.326 14.1105 205.445 5.62392 209.96 -2.66109L209.979 -2.67209ZM168.931 6.58626C167.892 -4.4118 167.81 -15.5084 168.05 -26.5513C164.966 -18.8167 161.654 -11.191 158.032 -3.72784C156.902 -1.41205 155.747 0.880783 154.486 3.14571C155.202 -1.96047 156.218 -6.98691 157.317 -12.0234C160.065 -24.4697 163.523 -36.8076 167.347 -48.952L169.698 -56.2234C170.306 -58.0842 172.119 -59.3514 174.16 -59.1779C176.527 -58.9656 178.272 -56.8965 178.059 -54.5293C177.672 -49.9939 177.14 -43.6509 176.626 -39.1813C174.883 -23.8191 172.745 -8.41764 168.916 6.58227L168.931 6.58626ZM117.058 -56.1796C125.795 -35.8635 134.204 -15.2814 140.959 5.79143C132.805 -7.484 125.434 -21.2895 118.376 -35.1881C120.956 -23.7645 123.312 -12.2877 125.311 -0.793668C125.938 2.82387 126.512 6.45943 127.018 10.109C124.219 3.31359 121.704 -3.58294 119.275 -10.5045C113.25 -27.74 107.873 -45.3007 102.932 -62.8736L100.013 -73.4408C99.4557 -75.4508 100.432 -77.6146 102.383 -78.4921C104.554 -79.4717 107.09 -78.5082 108.07 -76.3377C110.758 -70.3905 114.531 -62.068 117.065 -56.1456L117.058 -56.1796ZM51.2563 -42.0769C46.6166 -47.5642 37.4251 -58.6279 32.8692 -64.1892C31.5093 -65.8349 31.5496 -68.2799 33.0633 -69.8675C34.6918 -71.5852 37.4094 -71.6649 39.1271 -70.0364C49.1369 -60.6009 60.0986 -50.158 69.8347 -40.5385C86.6896 -23.8897 103.323 -7.01089 119.036 10.7308C103.11 -1.62628 87.7597 -14.6971 72.6346 -28.0129C82.3338 -15.4179 91.8163 -2.67192 100.917 10.1812C103.695 14.0981 106.428 18.0669 109.103 22.0688C102.312 15.255 95.7502 8.24528 89.238 1.16854C76.3215 -12.9081 63.6156 -27.4744 51.2713 -42.0729L51.2563 -42.0769ZM-32.3599 -30.9949L-50.5486 -41.4821C-52.4547 -42.5829 -53.2386 -45.0064 -52.2828 -47.0313C-51.28 -49.1721 -48.7078 -50.0931 -46.567 -49.0903C-25.0764 -39.009 -0.488296 -27.2372 20.7447 -16.791C49.383 -2.6259 78.1144 11.8529 106.114 27.2125C77.9154 16.1015 49.904 4.04514 22.1562 -8.27814C44.3814 5.25677 66.418 19.0786 88.1142 33.2753C91.031 35.2227 93.9748 37.1291 96.8686 39.1026C91.4864 36.4673 83.4814 32.3481 78.1161 29.589C40.8148 10.2789 4.09817 -10.1436 -32.3599 -30.9949ZM92.0959 59.0999C60.4923 52.7651 29.09 45.553 -2.27155 38.127C-24.7551 32.8053 -50.132 26.4735 -72.6288 20.7791L-96.0201 14.7667C-98.1637 14.1966 -99.5729 12.0723 -99.1747 9.85088C-98.7636 7.52057 -96.5205 5.96639 -94.1902 6.3775C-30.895 17.6901 33.0402 29.7347 95.6361 44.28C61.2503 40.0783 26.775 35.0663 -7.62967 29.6077C10.3325 34.6096 28.2328 39.7235 45.8684 44.9274C61.3005 49.5453 76.7595 54.1223 92.0999 59.0849L92.0959 59.0999ZM90.435 79.8286C51.8401 82.34 13.2137 83.9442 -25.4318 85.3186C-53.1419 86.3111 -84.5139 87.1322 -112.354 87.7691L-141.333 88.3437C-143.591 88.3852 -145.526 86.6669 -145.706 84.3879C-145.897 82.026 -144.127 79.9606 -141.751 79.7742C-64.9112 73.7754 12.8607 68.3136 89.8391 65.5939C50.3126 70.5219 10.458 74.7528 -29.4319 78.5729C-8.69643 78.5183 11.9922 78.5795 32.4381 78.7688C51.762 79.0128 71.0979 79.2118 90.439 79.8135L90.435 79.8286ZM96.2125 101.556C52.2587 115.467 8.05851 128.493 -36.2027 141.327C-67.9559 150.521 -103.967 160.637 -135.964 169.542L-169.286 178.72C-171.466 179.312 -173.781 178.119 -174.5 175.937C-175.249 173.683 -174.024 171.249 -171.785 170.496C-84.7787 141.537 3.94649 112.633 91.8804 86.8257C45.469 104.304 -1.65213 121.192 -48.8945 137.63C-22.9228 130.863 3.09985 124.205 28.9988 117.771C51.3773 112.263 73.7338 106.717 96.2125 101.556ZM-158.503 269.014C-72.27 214.538 15.7836 159.615 103.686 108.038C61.3932 136.884 18.3233 165.394 -24.9597 193.559C-3.31484 181.516 18.34 169.556 39.6055 157.973C61.7618 145.938 83.9222 133.887 106.266 122.174C63.4233 148.803 20.1259 174.669 -23.2816 200.345C-64.6766 224.791 -112.24 252.395 -154.046 276.395C-159.074 279.006 -163.057 272.136 -158.477 269.037L-158.503 269.014Z" fill="url(#paint0_radial_6467_21535)"/>
<defs>
<radialGradient id="paint0_radial_6467_21535" cx="0" cy="0" r="1" gradientUnits="userSpaceOnUse" gradientTransform="translate(69.5244 108.144) rotate(116.104) scale(226.602 226.602)">
<stop offset="0.3" stop-color="#FDEE00"/>
<stop offset="0.36" stop-color="#F2EB06"/>
<stop offset="0.47" stop-color="#D5E416"/>
<stop offset="0.61" stop-color="#A6D831"/>
<stop offset="0.77" stop-color="#66C956"/>
<stop offset="0.96" stop-color="#14B585"/>
<stop offset="1" stop-color="#00B091"/>
</radialGradient>
</defs>
</svg>
