<svg width="31" height="31" viewBox="0 0 31 31" fill="none" xmlns="http://www.w3.org/2000/svg">
<path d="M12.5249 23.0409C12.4692 23.0409 12.4135 23.0273 12.3628 23.0003C12.2502 22.9401 12.1797 22.8222 12.1797 22.6938V8.35544C12.1797 8.22723 12.2501 8.10931 12.3628 8.04889C12.4755 7.98884 12.612 7.99575 12.7179 8.06742L23.2994 15.2366C23.3946 15.3011 23.4518 15.4091 23.4518 15.5245C23.4518 15.6399 23.3946 15.7478 23.2994 15.8124L12.7176 22.9815C12.6597 23.021 12.5922 23.0409 12.5248 23.0409L12.5249 23.0409Z" fill="white"/>
<path d="M30.4653 15.5243C30.4653 23.5505 23.9601 30.0568 15.9358 30.0568C7.91143 30.0568 1.40625 23.5505 1.40625 15.5243C1.40625 7.49805 7.91143 0.991699 15.9358 0.991699C23.9601 0.991699 30.4653 7.49805 30.4653 15.5243Z" stroke="white"/>
</svg>
