<svg width="23" height="23" viewBox="0 0 23 23" fill="none" xmlns="http://www.w3.org/2000/svg">
<g opacity="0.9">
<path fill-rule="evenodd" clip-rule="evenodd" d="M7.52862 9.87226C7.95213 9.87226 8.35815 10.0448 8.65761 10.352C8.95707 10.6591 9.12525 11.0757 9.12525 11.5101C9.12525 11.9445 8.95708 12.3611 8.65761 12.6683C8.35815 12.9755 7.95213 13.148 7.52862 13.148C7.10522 13.148 6.69908 12.9755 6.39973 12.6683C6.10027 12.3611 5.9321 11.9445 5.9321 11.5101C5.93253 11.0758 6.10092 10.6595 6.40015 10.3524C6.6995 10.0455 7.1053 9.87271 7.52859 9.87229L7.52862 9.87226ZM15.6431 5.06614C16.0665 5.06614 16.4726 5.23866 16.7721 5.54576C17.0715 5.85296 17.2398 6.26949 17.2398 6.70396C17.2398 7.13831 17.0717 7.55495 16.7722 7.86216C16.4728 8.16937 16.0667 8.34189 15.6433 8.34201C15.2198 8.34201 14.8137 8.16937 14.5143 7.86227C14.2149 7.55507 14.0466 7.13842 14.0466 6.70407C14.0471 6.26983 14.2155 5.85362 14.5147 5.54655C14.814 5.23946 15.2198 5.0667 15.6431 5.06616L15.6431 5.06614ZM15.6431 14.9416C16.0665 14.9415 16.4726 15.1141 16.7721 15.4212C17.0715 15.7284 17.2398 16.145 17.2398 16.5795C17.2398 17.0139 17.0716 17.4305 16.7721 17.7377C16.4726 18.0449 16.0665 18.2174 15.6431 18.2173C15.2196 18.2173 14.8134 18.0447 14.5141 17.7375C14.2146 17.4303 14.0466 17.0135 14.0466 16.5792C14.0471 16.1449 14.2155 15.7287 14.5147 15.4218C14.8141 15.1148 15.2198 14.942 15.6431 14.9416L15.6431 14.9416ZM7.52862 14.0876C8.18426 14.0879 8.8138 13.8245 9.28219 13.3539L13.2751 15.7191C12.9911 16.5358 13.1251 17.4443 13.6324 18.1381C14.1395 18.8318 14.9521 19.2184 15.7959 19.1672C16.6398 19.1162 17.4023 18.6343 17.8264 17.8842C18.2506 17.134 18.2796 16.2157 17.9039 15.4389C17.5282 14.6622 16.7977 14.1305 15.9588 14.0233C15.1199 13.9162 14.2847 14.2478 13.7346 14.9063L9.81159 12.5835C10.0836 11.9747 10.1138 11.2813 9.89595 10.6501L13.7347 8.37728C14.2812 9.03084 15.1108 9.35975 15.9436 9.25329C16.7765 9.14672 17.5019 8.61884 17.8751 7.84765C18.2483 7.07644 18.2198 6.16459 17.7991 5.41949C17.3786 4.67451 16.6217 4.19534 15.7839 4.14378C14.946 4.09221 14.1388 4.47498 13.6343 5.16308C13.1298 5.85129 12.9951 6.75308 13.2758 7.56447L9.43731 9.83716C8.881 9.16909 8.0312 8.83789 7.18277 8.95837C6.33435 9.079 5.6044 9.63475 5.24603 10.4327C4.88767 11.2308 4.95047 12.1612 5.41259 12.901C5.87459 13.6407 6.67231 14.088 7.52872 14.0876L7.52862 14.0876Z" fill="#FBFBFB"/>
</g>
</svg>
