<svg width="393" height="328" viewBox="0 0 393 328" fill="none" xmlns="http://www.w3.org/2000/svg">
<path opacity="0.68" d="M367.119 74.3888C360.408 81.301 353.896 88.4249 348.133 95.9715C359.951 88.3039 370.757 79.4624 381.249 70.4524C384.293 67.8284 388.505 64.0095 391.501 61.284C393.07 59.8669 393.054 57.5951 391.464 56.2242C390.085 55.0388 387.988 54.9144 386.442 55.8141C382.463 58.1004 378.513 60.3855 374.611 62.772C364.818 68.7205 355.242 74.9574 346.171 81.7555C344.351 83.118 342.547 84.5185 340.789 85.9817C343.027 85.184 345.203 84.3111 347.363 83.4131C354.074 80.6196 360.658 77.5857 367.119 74.3888ZM333.522 48.785C328.694 53.3123 323.699 57.6913 318.446 61.8479C316.856 63.0981 315.236 64.3365 313.541 65.5261C314.543 63.8342 315.606 62.2045 316.714 60.5859C324.382 49.3625 333.309 38.8645 342.763 28.7719C345.802 25.6445 351.378 28.6152 349.566 32.4433C342.804 45.8907 335.423 59.2203 325.948 71.4053C327.887 63.7246 330.505 56.211 333.522 48.7979L333.522 48.785ZM296.612 61.9029C294.068 53.0162 292.394 43.9148 291.043 34.8136C289.288 41.5704 287.297 48.2849 284.98 54.8958C284.255 56.9384 283.515 58.9815 282.658 61.0164C282.592 56.7195 282.821 52.4627 283.122 48.1902C283.892 37.5986 285.351 27.0187 287.179 16.5276L288.338 10.2461C288.627 8.63379 290.142 7.34785 292.069 7.22071C294.302 7.06865 296.234 8.54236 296.369 10.5125C296.649 14.2845 297.061 19.5749 297.222 23.3C297.812 36.1365 298.012 49.0787 296.597 61.9034L296.612 61.9029ZM239.265 17.359C250.322 32.8584 261.097 48.627 270.419 65.0207C260.931 55.2183 252.081 44.8873 243.504 34.4166C247.547 43.4511 251.387 52.558 254.892 61.7168C256.001 64.6043 257.051 67.5069 258.044 70.4376C254.459 65.2328 251.133 59.9145 247.865 54.5553C239.775 41.212 232.257 27.5236 225.118 13.7688L220.885 5.47767C220.077 3.90833 220.676 1.99983 222.378 1.00351C224.253 -0.0899161 226.758 0.354201 227.979 1.99776C231.332 6.51447 236.044 12.8372 239.25 17.3596L239.265 17.359ZM180 37.7954C174.901 33.9152 164.744 26.0629 159.701 22.1159C158.191 20.9485 157.893 18.9331 159.063 17.4283C160.331 15.7905 162.861 15.3686 164.69 16.4719C175.376 22.8704 187.084 29.9648 197.529 36.5535C215.612 47.9559 233.542 59.5708 250.715 72.0288C234.097 64.0292 217.936 55.3534 201.928 46.4649C212.775 55.491 223.424 64.6798 233.757 74.0101C236.912 76.8561 240.011 79.743 243.082 82.6697C235.772 77.9982 228.657 73.1124 221.571 68.1868C207.516 58.3568 193.591 48.1085 180 37.7954ZM103.666 58.1388L85.2178 51.9799C83.2751 51.3329 82.2062 49.451 82.7946 47.6591C83.4228 45.7624 85.6777 44.667 87.8355 45.2022C109.313 50.5969 133.901 56.9414 155.171 62.667C183.884 70.438 212.724 78.4622 241.025 87.308C213.169 81.9825 185.325 75.843 157.707 69.4752C180.345 77.6004 202.861 85.9756 225.127 94.7093C228.131 95.9086 231.133 97.0821 234.124 98.3206C228.725 96.8795 220.688 94.5734 215.285 93.0291C177.759 82.1948 140.618 70.3771 103.667 58.1646L103.666 58.1388ZM232.552 115.361C202.19 114.42 171.9 112.727 141.618 110.841C119.904 109.496 95.3635 107.721 73.5792 106.069L50.9261 104.284C48.8414 104.121 47.2287 102.557 47.2719 100.67C47.3261 98.6926 49.1819 97.1222 51.4223 97.1507C112.016 97.9271 173.317 99.2052 233.725 102.713C201.089 103.888 168.238 104.414 135.401 104.564C152.854 106.256 170.268 108.04 187.451 109.936C202.491 111.645 217.544 113.328 232.566 115.334L232.552 115.361ZM233.974 132.593C198.371 139.85 162.622 146.363 126.807 152.698C101.124 157.242 72.0291 162.139 46.1737 166.406L19.254 170.779C17.1598 171.119 15.1093 169.96 14.6128 168.12C14.0986 166.204 15.457 164.265 17.6338 163.793C88.3708 148.523 160.042 133.566 231.382 120.984C195.262 130.353 158.74 139.194 122.118 147.692C141.428 144.856 160.714 142.125 179.785 139.532C197.825 137.121 215.878 134.696 233.974 132.593ZM242.472 149.652C203.517 166.981 164.199 183.641 124.801 200.123C96.5343 211.946 64.4407 225.095 35.9021 236.71L6.17939 248.733C4.23435 249.519 1.90973 248.836 0.921411 247.144C-0.0981607 245.402 0.6807 243.242 2.67914 242.324C79.6054 206.838 158.119 171.161 236.357 138.142C195.628 158.743 154.136 178.935 112.47 198.798C135.694 189.754 158.994 180.785 182.199 172.013C202.263 164.474 222.296 156.911 242.501 149.651L242.472 149.652ZM29.1512 321.414C101.675 265.082 175.858 208.142 250.354 153.965C215.076 183.339 179.045 212.536 142.741 241.485C161.178 228.678 179.633 215.96 197.794 203.577C216.712 190.712 235.629 177.834 254.761 165.206C218.653 192.831 182.026 219.894 145.262 246.809C110.204 272.456 69.8349 301.512 34.3253 326.841C30.0156 329.657 25.3227 324.56 29.1361 321.402L29.1512 321.414Z" fill="url(#paint0_radial_6467_21533)"/>
<defs>
<radialGradient id="paint0_radial_6467_21533" cx="0" cy="0" r="1" gradientUnits="userSpaceOnUse" gradientTransform="translate(218.639 158.675) rotate(109.452) scale(191.399 210.389)">
<stop stop-color="#F47920"/>
<stop offset="0.65" stop-color="#DC3069"/>
<stop offset="1" stop-color="#D20F8C"/>
</radialGradient>
</defs>
</svg>
