<svg width="32" height="32" viewBox="0 0 32 32" fill="none" xmlns="http://www.w3.org/2000/svg">
<path d="M16 31C7.71571 31 1 24.2843 1 16C1 7.71571 7.71571 1 16 1C24.2843 1 31 7.71571 31 16C31 24.2843 24.2843 31 16 31Z" stroke="white" stroke-width="1.5" stroke-miterlimit="10"/>
<path fill-rule="evenodd" clip-rule="evenodd" d="M13.5049 18.4945C11.9066 16.8964 11.9066 14.2712 13.5049 12.673L13.5047 12.6732L17.6629 8.51506C19.261 6.91679 21.8862 6.91693 23.4844 8.51506C25.0827 10.1132 25.0827 12.7383 23.4844 14.3366L20.8855 16.9355C20.9942 15.9607 20.8399 14.9769 20.4176 14.0767L21.8211 12.6732C22.5266 11.9677 22.5267 10.8838 21.8211 10.1782C21.1155 9.47269 20.0316 9.47269 19.3261 10.1782L15.1679 14.3364C14.4624 15.042 14.4624 16.1259 15.1679 16.8314C15.3151 16.9786 15.4882 17.0834 15.6619 17.1691L13.9467 18.8844C13.7863 18.7657 13.6498 18.6394 13.5049 18.4945ZM18.4947 13.5049C20.0929 15.103 20.0929 17.7281 18.4947 19.3264L18.4948 19.3261L14.3366 23.4843C12.7385 25.0826 10.1134 25.0824 8.51511 23.4843C6.91684 21.8862 6.91684 19.2611 8.51511 17.6628L11.1141 15.0638C11.0054 16.0387 11.1596 17.0225 11.5819 17.9227L10.1784 19.3261C9.47289 20.0317 9.47285 21.1156 10.1784 21.8212C10.884 22.5267 11.9679 22.5267 12.6734 21.8212L16.8316 17.663C17.5371 16.9574 17.5371 15.8735 16.8316 15.168C16.6844 15.0208 16.5114 14.916 16.3376 14.8303L18.0529 13.115C18.2132 13.2337 18.3497 13.3599 18.4947 13.5049Z" fill="white"/>
</svg>
