<svg width="421" height="593" viewBox="0 0 421 593" fill="none" xmlns="http://www.w3.org/2000/svg">
<path opacity="0.64" d="M376.192 509.91C373.948 507.541 371.683 505.194 369.299 502.926C370.683 505.91 372.179 508.807 373.703 511.689C381.336 526.001 389.921 539.761 398.948 553.223C402.541 558.597 406.267 563.877 410 569.15C411.462 571.22 414.213 572.088 416.643 571.073C419.475 569.904 420.816 566.651 419.632 563.819C417.396 558.396 414.241 550.787 411.872 545.5C403.732 527.285 395.069 509.163 384.46 492.218C387.43 505.968 391.584 519.459 396.132 532.774C389.734 524.934 383.106 517.289 376.178 509.91L376.192 509.91ZM341.899 516.51C346.901 538.771 348.588 561.65 349.396 584.374C349.463 590.787 340.647 592.271 338.578 586.258C332.387 567.007 327.103 547.439 323.842 527.449C323.386 524.571 322.965 521.685 322.678 518.748C324.154 521.291 325.504 523.893 326.811 526.496C331.1 535.091 334.918 543.898 338.44 552.823C338.89 540.66 339.92 528.529 341.899 516.51ZM261.449 591.908C259.076 590.765 257.896 588.16 258.45 585.69L260.624 576.073C264.392 560.065 268.678 544.099 273.831 528.473C275.945 522.18 278.115 515.915 280.69 509.778C280.595 513.125 280.365 516.438 280.092 519.738C279.187 530.403 277.83 541.061 276.153 551.674C283.169 539.257 290.583 527.003 298.984 515.483C293.336 534.654 285.562 553.158 277.365 571.35C274.989 576.636 271.401 584.048 268.848 589.329C267.513 592.087 264.207 593.243 261.449 591.908ZM176.739 567.411C174.228 569.17 170.775 568.553 169.016 566.042C167.431 563.769 167.778 560.722 169.715 558.867L179.912 549.058C196.993 532.831 214.532 516.88 232.585 501.72C239.864 495.642 247.187 489.648 254.784 483.947C251.823 487.665 248.791 491.313 245.708 494.912C235.912 506.348 225.737 517.529 215.34 528.508C232.339 517.728 249.618 507.275 267.411 497.918C246.016 516.859 223.117 534.147 200.026 550.944C193.308 555.839 183.628 562.598 176.732 567.418L176.739 567.411ZM104.426 514.938C101.438 515.608 98.4734 513.739 97.8034 510.751C97.1794 507.988 98.7409 505.241 101.343 504.322C110.062 501.157 127.572 494.937 136.328 491.905C159.65 483.853 183.351 476.07 206.978 468.954C218.866 465.405 230.777 461.933 242.807 458.856C237.199 461.541 231.554 464.135 225.888 466.651C207.314 474.917 188.381 482.807 169.323 490.381C194.889 485.575 220.54 481.184 246.365 477.979C217.229 487.319 187.629 495.082 157.959 502.443C140.821 506.712 121.761 511.069 104.433 514.945L104.426 514.938ZM119.109 443.694C88.6689 441.301 53.6263 438.14 23.1128 435.162C20.0672 434.871 17.8317 432.163 18.1154 429.11C18.3946 426.22 20.8567 424.066 23.7072 424.099L50.8055 424.452C105.019 425.355 159.229 426.895 213.366 430.062C221.139 430.532 232.741 431.245 240.452 431.865C235.931 432.135 231.415 432.327 226.892 432.555C193.451 433.993 159.872 434.798 126.286 435.164C165.206 439.797 204.261 444.882 242.874 451.14C201.658 449.725 160.22 446.843 119.109 443.68L119.109 443.694ZM118.223 373.505C160.001 390.136 201.575 407.309 242.505 425.319C163.435 400.173 84.5481 371.39 6.82839 342.206C3.96118 341.127 2.50292 337.933 3.58162 335.066C4.61298 332.333 7.58145 330.893 10.331 331.691L40.2579 340.449C68.9928 348.972 101.311 358.683 129.777 367.599C169.479 380.035 209.079 392.734 248.344 406.556C228.038 401.95 207.865 396.848 187.693 391.788C164.686 385.932 141.442 379.803 118.216 373.512L118.223 373.505ZM250.143 397.842C166.494 344.079 83.7846 286.729 2.46188 229.4C-0.041553 227.629 -0.641102 224.181 1.1222 221.67C2.81639 219.26 6.1088 218.621 8.58729 220.158L40.3656 239.912C70.853 258.987 105.115 280.576 135.225 299.954C177.196 326.964 219.009 354.21 260.187 382.442C238.326 370.358 216.741 357.846 195.127 345.362C172.307 332.098 149.304 318.519 126.335 304.791C168.087 335.32 209.52 366.292 250.15 397.835L250.143 397.842ZM266.422 375.646C185.849 289.026 106.435 198.449 28.9625 108.931C26.9595 106.615 27.2077 103.11 29.5237 101.107C31.7628 99.169 35.1179 99.3559 37.1527 101.452L68.0751 133.603C97.7127 164.579 131 199.55 160.18 230.696C200.858 274.12 241.312 317.731 280.917 362.147C259.387 341.6 238.213 320.701 217.017 299.823C192.537 275.596 168.044 251.051 143.677 226.419C185.27 275.825 226.439 325.641 266.415 375.639L266.422 375.646ZM293.462 359.889C229.935 244.675 168.406 125.659 108.629 8.34106C105.605 1.89015 114.55 -3.10389 118.411 3.10028C148.978 57.3073 183.573 119.3 213.386 173.724C244.636 230.848 275.633 288.089 305.628 345.891C288.56 318.151 271.919 290.171 255.263 262.205C239.305 235.318 223.151 207.768 207.081 180.133C236.557 239.937 265.548 299.982 293.475 359.875L293.462 359.889Z" fill="url(#paint0_radial_1272_60155)"/>
<defs>
<radialGradient id="paint0_radial_1272_60155" cx="0" cy="0" r="1" gradientUnits="userSpaceOnUse" gradientTransform="translate(253.269 339.079) rotate(-85.0321) scale(290.682 291.829)">
<stop offset="0.12" stop-color="#FDEE00"/>
<stop offset="0.25" stop-color="#F9ED02"/>
<stop offset="0.36" stop-color="#EEEA08"/>
<stop offset="0.47" stop-color="#DBE512"/>
<stop offset="0.57" stop-color="#C1DF21"/>
<stop offset="0.67" stop-color="#A0D735"/>
<stop offset="0.77" stop-color="#77CD4C"/>
<stop offset="0.87" stop-color="#46C168"/>
<stop offset="0.97" stop-color="#0FB388"/>
<stop offset="0.99" stop-color="#00B091"/>
</radialGradient>
</defs>
</svg>
