<svg width="262" height="106" viewBox="0 0 262 106" fill="none" xmlns="http://www.w3.org/2000/svg">
<path opacity="0.26" d="M300.985 142.605C306.15 143.734 311.355 144.633 316.579 145.379C309.332 146.987 302.118 148.876 295.075 151.319C305.544 151.453 316.028 150.39 326.432 149.052L331.609 148.319L336.78 147.51C338.377 147.257 339.496 145.743 339.295 144.116C339.122 142.723 338.017 141.7 336.702 141.605C333.338 141.352 329.973 141.128 326.585 140.98C318.122 140.6 309.635 140.473 301.14 140.975C299.658 141.078 297.481 141.21 296.004 141.39C297.398 141.788 299.516 142.273 300.973 142.6L300.985 142.605ZM325.99 104.151C329.272 103.379 330.911 107.881 327.953 109.619C317.373 115.577 306.564 121.159 295.117 125.077C300.081 120.786 305.366 116.974 310.799 113.381C307.3 113.988 303.795 114.519 300.308 114.926C297.274 115.275 294.241 115.564 291.151 115.65C293.976 114.303 296.839 113.166 299.714 112.064C308.241 108.873 317.174 106.305 325.99 104.151ZM304.991 67.62C307.56 65.2225 311.242 68.3802 309.337 71.3653C301.458 83.3124 293.155 95.1414 283.535 105.713C286.625 98.6571 290.249 91.8462 294.101 85.1761C289.707 88.9067 285.21 92.4991 280.582 95.8658C279.321 96.7675 277.485 98.095 276.207 98.9148C277.102 97.6586 278.543 95.8892 279.518 94.672C287.354 85.057 296.067 76.1475 305.014 67.6018L304.991 67.62ZM275.495 35.2958L274.803 42.9293C273.039 60.7016 270.923 78.6121 267.356 96.1551C267.024 85.3773 267.284 74.5784 267.797 63.7848C265.497 71.6066 263.036 79.3798 260.368 87.0526C259.632 89.1503 258.531 92.232 257.732 94.2549C257.98 92.0819 258.496 88.8626 258.819 86.6817C261.594 69.1651 265.505 51.7013 269.807 34.4565C270.749 30.915 275.771 31.6658 275.512 35.2895L275.495 35.2958ZM241.323 75.9545C242.018 82.5422 242.737 89.1116 243.186 95.7409C241.45 89.368 239.99 82.9528 238.507 76.5264C234.902 60.584 231.752 44.2012 228.906 28.069L227.239 18.3181C226.991 16.8742 227.834 15.4021 229.248 14.9134C230.783 14.3805 232.406 15.2134 232.877 16.7807C234.757 22.9737 236.615 29.1849 238.408 35.4095C243.756 54.1252 248.833 72.9301 252.823 92.045C247.617 79.3088 242.94 66.3594 238.51 53.3097C239.552 60.8748 240.509 68.4421 241.34 75.9482L241.323 75.9545ZM202.207 48.9816C207.305 58.2386 212.327 67.5034 217.229 76.7538C221.652 85.1827 226.086 93.6172 230.301 102.181C224.987 94.3033 219.891 86.2969 214.784 78.2849C202.199 58.3589 189.76 37.7833 177.797 17.4243L170.614 5.10923C169.866 3.81919 170.199 2.08429 171.448 1.14774C172.761 0.168454 174.575 0.432737 175.495 1.74769L183.788 13.5584C202.991 41.1872 222.038 69.2252 239.71 97.9035C226.9 81.9408 214.43 65.5408 202.213 48.9697L202.207 48.9816ZM171.876 62.2904C180.81 71.2368 189.676 80.2085 198.369 89.1846C205.906 97.0104 213.449 104.824 220.807 112.843C212.55 105.799 204.471 98.5624 196.387 91.3379C176.393 73.3239 156.31 54.59 136.807 35.9762L125.072 24.7125C123.99 23.6718 123.881 21.9131 124.862 20.6841C125.888 19.3892 127.727 19.1655 128.946 20.185C162.243 47.5491 196.013 75.8639 227.845 104.957C209.072 91.2858 190.336 76.8386 171.882 62.3079L171.876 62.2904ZM217.305 116.08C192.449 106.26 167.503 95.8663 142.679 85.1936C155.054 91.99 167.43 98.8745 179.169 105.494C190.449 111.919 201.741 118.321 212.899 124.967C195.887 117.063 177.237 107.834 160.359 99.4508C137.954 88.2634 113.337 75.6183 91.0594 63.993L73.8271 54.9383C72.4857 54.2273 71.9285 52.5448 72.588 51.1009C73.2764 49.5976 75.0015 48.907 76.4522 49.5683C85.2941 53.5437 103.098 61.6266 111.911 65.6615C146.997 81.8231 182.873 98.6336 217.311 116.098L217.305 116.08ZM28.475 95.205C89.1686 105.76 151.227 116.95 211.413 129.714C178.264 125.316 144.778 120.299 111.385 114.974C129.196 119.34 147.144 123.831 164.11 128.184C179.103 132.076 194.101 135.957 209.042 140.104C187.021 135.97 162.677 130.898 140.658 126.265C111.391 120.064 79.1353 112.896 49.8583 106.249L27.2151 101.033C23.566 100.053 24.8474 94.6764 28.4922 95.1987L28.475 95.205ZM3.32526 159.675C20.4542 158.386 64.6552 155.071 81.2609 153.984C124.151 151.06 168.35 148.302 211.254 146.488C177.067 150.349 141.887 153.801 106.68 156.961C123.57 156.63 140.879 156.37 156.896 156.173C173.941 156.02 190.991 155.855 208.047 155.942C190.999 157.152 173.951 158.098 156.909 159.061C123.889 160.843 87.6701 162.467 54.6282 163.768L3.47777 165.601C1.92133 165.653 0.621764 164.448 0.563936 162.847C0.494739 161.21 1.73991 159.786 3.3425 159.669L3.32526 159.675Z" fill="url(#paint0_radial_1272_60047)"/>
<defs>
<radialGradient id="paint0_radial_1272_60047" cx="0" cy="0" r="1" gradientUnits="userSpaceOnUse" gradientTransform="translate(179.097 126.078) rotate(-146.461) scale(135.759 140.631)">
<stop offset="0.3" stop-color="#FDEE00"/>
<stop offset="0.36" stop-color="#F2EB06"/>
<stop offset="0.47" stop-color="#D5E416"/>
<stop offset="0.61" stop-color="#A6D831"/>
<stop offset="0.77" stop-color="#66C956"/>
<stop offset="0.96" stop-color="#14B585"/>
<stop offset="1" stop-color="#00B091"/>
</radialGradient>
</defs>
</svg>
