<svg width="275" height="125" viewBox="0 0 275 125" fill="none" xmlns="http://www.w3.org/2000/svg">
<path opacity="0.5" d="M189.685 25.323C188.457 24.0132 187.292 22.6533 186.164 21.2603C186.965 23.6178 187.683 26.0094 188.209 28.4448C186.343 25.4381 184.82 22.2319 183.391 19.0048L182.698 17.3863L182.029 15.7598C181.823 15.26 182.064 14.6861 182.564 14.4809C182.997 14.3064 183.48 14.4573 183.739 14.8261C184.4 15.7595 185.05 16.6976 185.685 17.6518C187.274 20.0372 188.787 22.4761 190.125 25.0133C190.354 25.4615 190.698 26.1122 190.9 26.5632C190.54 26.2214 190.031 25.6899 189.685 25.323ZM196.385 11.8563C196.035 10.7849 194.455 11.0382 194.468 12.1777C194.6 16.2042 194.88 20.2387 195.751 24.1839C196.118 22.0525 196.292 19.905 196.378 17.7504C196.812 18.862 197.273 19.9618 197.763 21.0384C198.191 21.9709 198.638 22.8976 199.154 23.8026C199.05 22.7671 198.877 21.7534 198.69 20.743C198.121 17.7562 197.301 14.7576 196.379 11.8587L196.385 11.8563ZM210.568 12.0077C210.81 10.8777 209.261 10.323 208.731 11.3579C206.668 15.5715 204.712 19.8938 203.35 24.3915C204.84 22.3529 206.168 20.2022 207.415 18.0037C207.11 19.8779 206.862 21.7606 206.699 23.649C206.658 24.1601 206.598 24.9095 206.587 25.4102C206.791 24.9473 207.05 24.2424 207.229 23.7658C208.627 19.9418 209.674 15.9731 210.57 12.0039L210.568 12.0077ZM225.016 15.3033L222.941 16.7386C218.137 20.1321 213.349 23.6476 208.925 27.5243C212.083 25.8735 215.151 24.0467 218.168 22.1491C216.32 24.0837 214.511 26.0543 212.766 28.0707C212.291 28.6257 211.597 29.4399 211.153 30.0025C211.735 29.5779 212.573 28.9085 213.142 28.4617C217.699 24.8162 222.041 20.8572 226.253 16.8192C227.105 15.9738 226.016 14.6385 225.016 15.3033ZM219.279 31.7789C217.265 32.6464 215.247 33.5035 213.261 34.4499C215.395 33.9167 217.5 33.2994 219.606 32.691C224.822 31.1472 230.086 29.4057 235.227 27.6136L238.319 26.5165C238.776 26.3557 239.056 25.874 238.946 25.3841C238.83 24.8531 238.307 24.5193 237.776 24.6351C235.665 25.095 233.555 25.5639 231.449 26.0559C225.129 27.5396 218.832 29.1226 212.637 31.0674C217.212 30.5083 221.752 29.764 226.283 28.9298C223.924 29.8573 221.581 30.8084 219.273 31.7813L219.279 31.7789ZM233.866 38.7242C230.316 38.7485 226.769 38.7998 223.254 38.8804C220.057 38.9676 216.857 39.0497 213.657 39.2225C216.85 39.4828 220.048 39.6589 223.241 39.8373C231.17 40.2502 239.263 40.5094 247.212 40.6712L252.008 40.7557C252.511 40.7628 252.951 40.3841 253 39.8721C253.055 39.3321 252.661 38.8522 252.119 38.8001L247.27 38.3161C235.968 37.2387 224.576 36.2743 213.238 35.813C220.068 36.9317 226.963 37.8802 233.864 38.7279L233.866 38.7242ZM235.331 49.6557C231.197 48.5206 227.065 47.4125 222.968 46.3517C219.401 45.4423 215.837 44.5252 212.244 43.6966C215.71 44.9437 219.204 46.1061 222.695 47.2761C231.367 50.1414 240.265 52.9104 249.026 55.5375L254.319 57.1066C254.805 57.2499 255.331 56.9984 255.516 56.5157C255.706 56.0089 255.451 55.4434 254.945 55.2495C241.258 50.0518 227.218 44.8731 213.291 40.3837C220.502 43.5989 227.927 46.6788 235.33 49.6595L235.331 49.6557ZM211.923 45.2328C219.087 50.8328 226.436 56.3642 233.836 61.8158C229.721 59.338 225.58 56.872 221.628 54.5497C217.811 52.3258 213.999 50.0996 210.138 47.9456C215.381 51.5838 221.294 55.4859 226.65 59.0068C233.782 63.6763 241.714 68.7487 248.948 73.3057L254.561 76.8234C254.998 77.0953 255.579 76.9852 255.882 76.5592C256.194 76.1157 256.091 75.5034 255.651 75.1918C252.965 73.2796 247.531 69.4361 244.829 67.5438C234.054 60.0125 222.954 52.3593 211.921 45.2276L211.923 45.2328ZM250.886 96.4831C237.257 80.6316 223.203 64.4959 209.027 49.147C216.08 58.0269 223.369 66.9002 230.728 75.7007C226.361 71.2564 221.937 66.7909 217.725 62.5901C213.989 58.8825 210.255 55.1712 206.458 51.5227C211.489 57.2251 217.198 63.4449 222.376 69.0646C229.27 76.5261 236.964 84.6973 243.983 92.0893L249.435 97.7984C250.351 98.694 251.68 97.4534 250.89 96.4845L250.886 96.4831ZM236.726 114.211C234.106 109.046 227.35 95.7217 224.762 90.7362C218.121 77.8525 211.201 64.6185 204.23 51.9131C209.088 62.4335 214.232 73.169 219.467 83.8696C216.612 78.9304 213.669 73.8768 210.93 69.2142C207.999 64.2556 205.073 59.2984 202.066 54.3805C204.691 59.5093 207.393 64.5936 210.094 69.6817C215.344 79.5251 221.198 90.2678 226.592 100.036L234.991 115.131C235.247 115.589 235.822 115.77 236.293 115.528C236.778 115.283 236.968 114.694 236.722 114.21L236.726 114.211Z" fill="url(#paint0_radial_3460_93896)"/>
<path opacity="0.5" d="M90.5128 94.3158C91.7321 95.5967 92.8938 96.9266 94.0154 98.2863C93.2042 95.9712 92.4781 93.6201 91.9378 91.2276C93.8023 94.1732 95.3317 97.3175 96.7701 100.484L97.4667 102.07L98.141 103.667C98.3485 104.161 98.1169 104.723 97.6231 104.93C97.2002 105.107 96.7192 104.96 96.463 104.602C95.8045 103.69 95.1543 102.772 94.5217 101.836C92.9378 99.4986 91.4211 97.1134 90.0802 94.6241C89.8507 94.1873 89.5082 93.5487 89.3011 93.1012C89.6566 93.4317 90.1629 93.9532 90.5092 94.3135L90.5128 94.3158ZM84.0368 107.64C84.3919 108.695 85.9469 108.43 85.9208 107.309C85.7538 103.344 85.4411 99.375 84.5484 95.4949C84.205 97.598 84.0525 99.7142 83.9877 101.837C83.5483 100.746 83.0865 99.6669 82.5928 98.6124C82.1618 97.6961 81.7142 96.7893 81.1993 95.8995C81.3123 96.9185 81.4915 97.9146 81.6826 98.9083C82.2708 101.843 83.1056 104.791 84.0368 107.64ZM70.0759 107.611C69.8484 108.728 71.3809 109.26 71.8899 108.236C73.8827 104.065 75.7681 99.7933 77.0693 95.3522C75.6198 97.3722 74.3322 99.5038 73.1244 101.678C73.4092 99.827 73.6371 97.9697 73.7785 96.1118C73.8127 95.6083 73.8665 94.8725 73.8746 94.3774C73.6766 94.8346 73.4294 95.5301 73.2563 96.0038C71.9135 99.7842 70.9224 103.699 70.0748 107.621L70.0759 107.611ZM55.8182 104.492L57.8492 103.058C62.5507 99.6759 67.2299 96.1718 71.5522 92.3158C68.4565 93.9695 65.458 95.7944 62.5051 97.69C64.3085 95.7696 66.0701 93.8116 67.7674 91.8113C68.2302 91.2624 68.9066 90.4504 69.3374 89.8959C68.7682 90.3187 67.9509 90.987 67.3925 91.4323C62.9393 95.0593 58.6994 99.0001 54.5892 103.016C53.7553 103.857 54.8433 105.159 55.8195 104.498L55.8182 104.492ZM61.316 88.2122C63.2942 87.3412 65.2714 86.4796 67.2183 85.5318C65.1191 86.0732 63.056 86.6996 60.9859 87.3213C55.8632 88.8847 50.6959 90.6485 45.6521 92.4578L42.6128 93.5664C42.1625 93.7303 41.8947 94.2081 42.0038 94.6882C42.1214 95.2098 42.6393 95.5346 43.1633 95.4141C45.2369 94.9428 47.3117 94.462 49.3792 93.9611C55.5876 92.4418 61.7739 90.8314 67.858 88.8629C63.3597 89.4524 58.8936 90.2265 54.4423 91.087C56.7567 90.1558 59.0566 89.1999 61.3172 88.2181L61.316 88.2122ZM46.8882 81.4986C50.3869 81.4423 53.8747 81.3637 57.3374 81.2531C60.4849 81.1399 63.6359 81.029 66.7852 80.8351C63.6375 80.6061 60.4916 80.46 57.3422 80.3116C49.5299 79.9756 41.5599 79.7863 33.734 79.6967L29.0095 79.6576C28.5153 79.6547 28.0844 80.0305 28.0384 80.5365C27.9914 81.0674 28.3824 81.5387 28.9136 81.5863L33.6897 82.0218C44.828 82.9848 56.0544 83.8371 67.2214 84.1959C60.4868 83.1532 53.6883 82.2779 46.8859 81.5022L46.8882 81.4986ZM45.3471 70.7427C49.4278 71.8245 53.5035 72.8826 57.5504 73.8912C61.0713 74.7586 64.5899 75.6296 68.1339 76.4151C64.7077 75.2167 61.2584 74.1001 57.8114 72.98C49.2453 70.2339 40.4607 67.5792 31.8111 65.0693L26.5886 63.5694C26.1065 63.4315 25.5918 63.6858 25.4164 64.163C25.2306 64.664 25.4883 65.2214 25.9885 65.4018C39.5113 70.4026 53.3846 75.3835 67.1392 79.6889C60.0102 76.5844 52.6688 73.6162 45.3531 70.7415L45.3471 70.7427ZM68.4354 74.8972C61.3303 69.4441 54.048 64.0584 46.7083 58.7523C50.7833 61.1582 54.8832 63.5498 58.7971 65.8039C62.5765 67.9594 66.3512 70.1221 70.1715 72.2074C64.9753 68.6668 59.1197 64.877 53.8118 61.4519C46.7491 56.9152 38.8896 51.9879 31.7258 47.5583L26.1668 44.142C25.7323 43.8771 25.1608 43.992 24.8689 44.4131C24.5653 44.852 24.6717 45.4529 25.1112 45.7569C27.7745 47.6186 33.1593 51.3546 35.8344 53.1984C46.5117 60.523 57.5098 67.9663 68.4413 74.896L68.4354 74.8972ZM29.6033 24.7567C43.1686 40.2493 57.1508 56.0258 71.2503 71.0163C64.2267 62.333 56.9696 53.6547 49.6421 45.0526C53.9804 49.3933 58.3781 53.7525 62.5653 57.856C66.2785 61.4746 69.9894 65.0967 73.765 68.6592C68.7575 63.0875 63.0804 57.0095 57.9325 51.5192C51.078 44.2288 43.4292 36.2481 36.4472 29.0272L31.0262 23.4545C30.1132 22.5791 28.8214 23.8142 29.6045 24.7626L29.6033 24.7567ZM43.387 7.17317C46.0125 12.2375 52.7904 25.3044 55.3814 30.1877C62.041 42.8195 68.9758 55.7954 75.9505 68.2511C71.0736 57.9342 65.9084 47.4023 60.6557 36.9101C63.5095 41.7515 66.4565 46.7001 69.1957 51.2723C72.1266 56.1286 75.0551 60.9885 78.0557 65.8089C75.4221 60.7801 72.7142 55.7945 70.0122 50.8076C64.7528 41.1587 58.8908 30.6288 53.4922 21.0518L45.0841 6.25535C44.8271 5.80573 44.2606 5.63281 43.7992 5.87612C43.3258 6.12187 43.1418 6.70571 43.3882 7.17908L43.387 7.17317Z" fill="url(#paint1_radial_3460_93896)"/>
<defs>
<radialGradient id="paint0_radial_3460_93896" cx="0" cy="0" r="1" gradientUnits="userSpaceOnUse" gradientTransform="translate(217.058 55.5289) rotate(35.8457) scale(45.6057 45.5654)">
<stop stop-color="#F47920"/>
<stop offset="0.16" stop-color="#F17226"/>
<stop offset="0.38" stop-color="#EC6039"/>
<stop offset="0.64" stop-color="#E24257"/>
<stop offset="0.93" stop-color="#D51981"/>
<stop offset="1" stop-color="#D20F8C"/>
</radialGradient>
<radialGradient id="paint1_radial_3460_93896" cx="0" cy="0" r="1" gradientUnits="userSpaceOnUse" gradientTransform="translate(64.5869 62.4456) rotate(-154.033) scale(45.4771 45.4209)">
<stop offset="0.3" stop-color="#FDEE00"/>
<stop offset="0.36" stop-color="#F2EB06"/>
<stop offset="0.47" stop-color="#D5E416"/>
<stop offset="0.61" stop-color="#A6D831"/>
<stop offset="0.77" stop-color="#66C956"/>
<stop offset="0.96" stop-color="#14B585"/>
<stop offset="1" stop-color="#00B091"/>
</radialGradient>
</defs>
</svg>
