<svg width="14" height="8" viewBox="0 0 14 8" fill="none" xmlns="http://www.w3.org/2000/svg">
<path d="M14 1.14089C14 1.26002 13.9532 1.36541 13.8597 1.45704L7.32265 7.86254C7.22913 7.95418 7.12158 8 7 8C6.87842 8 6.77088 7.95418 6.67735 7.86254L0.140281 1.45704C0.0467602 1.36541 0 1.26002 0 1.14089C0 1.02176 0.0467602 0.91638 0.140281 0.824742L0.841683 0.137457C0.935204 0.045819 1.04275 0 1.16433 0C1.28591 0 1.39345 0.045819 1.48697 0.137457L7 5.53952L12.513 0.137457C12.6065 0.045819 12.7141 0 12.8357 0C12.9572 0 13.0648 0.045819 13.1583 0.137457L13.8597 0.824742C13.9532 0.91638 14 1.02176 14 1.14089Z" fill="black"/>
</svg>
