<svg width="24" height="24" viewBox="0 0 24 24" fill="none" xmlns="http://www.w3.org/2000/svg">
<path d="M20.6531 7.23548L10.3597 18.6165C10.1376 18.862 9.83637 19 9.52221 19C9.20819 19 8.90699 18.862 8.68487 18.6165L3.34688 12.7145C3.04776 12.3837 2.93086 11.9015 3.04037 11.4497C3.14989 10.9977 3.4691 10.6448 3.87785 10.5237C4.28647 10.4026 4.72259 10.5319 5.02172 10.8626L9.27579 15.5662C9.34111 15.6385 9.42975 15.6791 9.52216 15.6791C9.61457 15.6791 9.70321 15.6385 9.76853 15.5662L18.978 5.38355C19.2772 5.05269 19.7134 4.92358 20.122 5.04466C20.5308 5.16575 20.8501 5.51869 20.9596 5.97063C21.0691 6.42257 20.9522 6.90477 20.653 7.23562L20.6531 7.23548Z" fill="#19398A"/>
</svg>
