<svg width="263" height="238" viewBox="0 0 263 238" fill="none" xmlns="http://www.w3.org/2000/svg">
<path opacity="0.93" d="M99.1234 136.695C93.1493 138.734 87.2787 141.029 81.4685 143.487C87.9251 137.53 94.1902 131.336 99.9401 124.692C89.1305 130.919 79.0252 138.316 69.1715 145.93L64.3011 149.787L59.492 153.708C58.0137 154.913 57.7707 157.07 58.9457 158.513C59.9668 159.751 61.697 160.071 63.115 159.356C66.719 157.555 70.2994 155.722 73.8625 153.817C82.7701 149.052 91.5366 144 99.937 138.361C101.4 137.354 103.555 135.908 104.94 134.848C103.261 135.317 100.804 136.127 99.1234 136.695ZM96.6107 189.009C93.719 191.739 89.3326 188.396 91.3146 184.911C98.5759 172.733 106.302 160.77 115.677 150.04C113.165 157.195 110.038 164.087 106.631 170.858C109.848 168.141 113.124 165.503 116.453 162.985C119.346 160.809 122.288 158.682 125.402 156.734C123.32 159.751 121.067 162.591 118.775 165.397C111.953 173.666 104.346 181.566 96.5988 188.993L96.6107 189.009ZM140.111 211.55C138.924 215.421 133.255 214.615 133.402 210.569C134.291 194.256 135.689 177.779 139.199 161.728C140.267 170.418 140.654 179.192 140.711 187.981C142.973 181.718 145.425 175.522 148.143 169.445C148.89 167.806 149.982 165.401 150.803 163.843C150.635 165.598 150.226 168.189 149.959 169.946C147.709 183.983 144.139 197.895 140.109 211.564L140.111 211.55ZM189.773 224.843L185.891 217.06C177.027 198.824 168.415 180.236 161.533 161.13C168.347 171.332 174.589 181.931 180.554 192.665C178.217 183.714 176.058 174.714 174.174 165.679C173.669 163.199 172.941 159.568 172.546 157.116C173.598 159.367 175.013 162.787 175.986 165.085C183.67 183.697 190.163 202.924 196.126 222.184C197.284 226.168 191.69 228.512 189.773 224.843ZM200.345 164.829C195.684 158.894 190.992 152.983 186.547 146.847C192.145 151.95 197.512 157.265 202.897 162.554C216.169 175.766 229.252 189.664 241.872 203.518L249.431 211.911C250.552 213.148 250.585 215.085 249.415 216.414C248.156 217.86 245.994 218.039 244.571 216.821C238.918 211.981 233.284 207.115 227.702 202.185C210.96 187.366 194.458 172.28 178.883 156.246C191.878 165.387 204.454 175.043 216.848 184.961C211.233 178.278 205.711 171.551 200.333 164.814L200.345 164.829ZM256.648 167.116C245.867 161.283 235.141 155.372 224.562 149.422C214.962 143.967 205.345 138.523 195.885 132.802C206.062 137.179 216.113 141.825 226.152 146.456C251.027 158.046 276.145 170.377 300.656 182.774L315.421 190.293C316.965 191.086 317.661 192.965 316.939 194.621C316.189 196.373 314.169 197.21 312.428 196.491L296.82 190.115C260.528 175.098 224.154 159.587 188.799 142.615C211.529 150.252 234.164 158.516 256.65 167.102L256.648 167.116ZM279.736 135.849C265.198 132.636 250.714 129.345 236.415 125.963C223.991 122.976 211.563 120.017 199.198 116.739C211.89 118.524 224.522 120.614 237.158 122.675C268.477 127.923 300.321 133.835 331.507 139.961L350.317 143.717C352.043 144.065 353.218 145.692 352.96 147.478C352.676 149.346 350.937 150.674 349.064 150.45C298.481 144.244 246.854 137.408 196.747 128.634C224.208 130.435 252.093 133.001 279.738 135.835L279.736 135.849ZM200.836 111.491C232.215 105.876 264.043 100.773 295.891 95.9988C279.126 96.95 262.3 97.8227 246.293 98.5579C230.868 99.2107 215.454 99.8793 200.015 100.246C222.197 97.5539 246.871 95.1357 269.198 92.9876C298.897 90.1855 331.717 87.4393 361.537 85.1499L384.639 83.4271C386.437 83.3006 388.021 84.582 388.216 86.383C388.415 88.2556 387.058 89.9729 385.185 90.2179C373.739 91.7462 350.625 94.7606 339.164 96.2018C293.484 101.902 246.605 107.45 200.82 111.503L200.836 111.491ZM406.923 16.9596C338.37 43.638 268.039 70.5022 198.675 94.747C235.303 78.8579 272.639 63.3713 310.065 48.2231C289.182 54.8178 268.089 61.3858 248.092 67.4822C230.386 72.8327 212.678 78.1971 194.887 83.2668C219.939 73.8771 247.94 63.9957 273.3 55.1C307.027 43.3179 344.403 30.65 378.393 19.2851L404.739 10.5573C409.059 9.28785 410.996 15.2608 406.937 16.9614L406.923 16.9596ZM393.95 -60.5712C377.164 -48.9225 333.869 -18.8755 317.487 -7.72954C275.295 21.1504 231.656 50.6562 188.761 78.4521C221.491 53.9533 255.462 29.257 289.649 4.81572C272.529 15.3847 254.95 26.1653 238.657 36.0721C221.276 46.5794 203.909 57.0886 186.367 67.3481C203.106 55.8212 220.004 44.5562 236.905 33.2773C269.677 11.4979 305.824 -12.069 338.909 -33.3822L390.227 -66.2171C391.787 -67.2123 393.85 -66.8362 394.873 -65.3278C395.933 -63.7862 395.511 -61.6658 393.936 -60.573L393.95 -60.5712Z" fill="url(#paint0_radial_3671_52794)" fill-opacity="0.43"/>
<ellipse cx="149.826" cy="109.254" rx="131.76" ry="71.5" transform="rotate(157.52 149.826 109.254)" fill="url(#paint1_radial_3671_52794)"/>
<ellipse cx="304.785" cy="-29.1652" rx="136.554" ry="120.517" transform="rotate(-138.263 304.785 -29.1652)" fill="url(#paint2_radial_3671_52794)"/>
<defs>
<radialGradient id="paint0_radial_3671_52794" cx="0" cy="0" r="1" gradientUnits="userSpaceOnUse" gradientTransform="translate(234.029 88.132) rotate(-7.99882) scale(159.753 157.998)">
<stop stop-color="#F47920"/>
<stop offset="0.16" stop-color="#F17226"/>
<stop offset="0.38" stop-color="#EC6039"/>
<stop offset="0.64" stop-color="#E24257"/>
<stop offset="0.93" stop-color="#D51981"/>
<stop offset="1" stop-color="#D20F8C"/>
</radialGradient>
<radialGradient id="paint1_radial_3671_52794" cx="0" cy="0" r="1" gradientUnits="userSpaceOnUse" gradientTransform="translate(149.826 109.254) rotate(90) scale(71.5 131.76)">
<stop offset="0.60002" stop-color="#031945"/>
<stop offset="1" stop-color="#031945" stop-opacity="0"/>
</radialGradient>
<radialGradient id="paint2_radial_3671_52794" cx="0" cy="0" r="1" gradientUnits="userSpaceOnUse" gradientTransform="translate(304.785 -29.1652) rotate(90) scale(120.517 136.554)">
<stop offset="0.60002" stop-color="#031945"/>
<stop offset="1" stop-color="#031945" stop-opacity="0"/>
</radialGradient>
</defs>
</svg>
