<svg width="352" height="372" viewBox="0 0 352 372" fill="none" xmlns="http://www.w3.org/2000/svg">
<g opacity="0.5">
<path d="M292.49 107.824L285.723 113.725L278.866 119.512C264.979 130.973 250.695 142.114 235.33 151.558C243.291 141.647 252.025 132.374 261.067 123.443C252.742 127.213 244.315 130.745 235.739 133.912C233.328 134.789 229.791 136.065 227.38 136.794C229.348 135.188 232.407 133.001 234.466 131.485C246.362 122.964 258.838 115.309 271.519 108.063C276.58 105.17 281.697 102.379 286.838 99.6332C288.84 98.5509 291.41 98.961 292.968 100.761C294.776 102.846 294.56 106.001 292.479 107.824H292.49ZM253.481 65.7759C256.165 60.6153 249.546 55.8306 245.497 59.9203C234.682 71.039 224.082 82.8526 214.654 95.1789C211.492 99.3484 208.387 103.586 205.544 108.075C209.957 105.124 214.108 101.912 218.191 98.6421C222.877 94.8599 227.494 90.8954 232.009 86.8171C227.471 96.8421 223.354 107.049 220.147 117.621C233.146 101.615 243.644 83.8437 253.458 65.7645L253.481 65.7759ZM185.039 101.182C189.133 77.5211 190.134 53.3243 190.384 29.3554C190.35 23.4201 182.025 22.3948 180.535 28.1022C175.531 48.2776 171.209 68.7834 168.821 89.4486C168.559 92.046 168.116 95.8396 167.991 98.4256C169.083 96.1016 170.527 92.5473 171.505 90.1208C175.076 81.1324 178.249 71.9618 181.161 62.7C181.809 75.5845 182.923 88.4461 185.05 101.171L185.039 101.182ZM128.652 61.5608C138.034 77.1452 147.815 92.5017 158.403 107.277C147.133 79.435 133.394 52.413 119.292 25.915L113.139 14.6026C110.102 9.28251 102.096 12.8596 104.041 18.681C113.969 46.7739 124.66 74.8098 137.068 101.889C138.649 105.249 140.912 110.216 142.606 113.486C141.867 109.909 140.571 104.589 139.683 100.966C136.374 87.7512 132.644 74.6161 128.663 61.5494L128.652 61.5608ZM131.074 117.895C107.316 94.8029 82.2728 73.1466 56.9111 51.8775C48.461 44.803 39.9313 37.8311 31.3789 30.8819C29.2294 29.1389 26.0905 29.4693 24.3504 31.6224C22.7468 33.6046 22.906 36.4413 24.6233 38.2298L36.201 50.3396C55.5009 70.3099 75.4718 90.3372 95.6702 109.339C103.859 116.949 112.024 124.593 120.531 131.918C113.651 123.044 106.44 114.5 99.2526 105.933C90.9845 96.1928 82.5003 86.4867 73.8796 76.849C92.5767 91.0435 111.547 104.874 131.097 117.906L131.074 117.895ZM298.734 210.467C289.283 212.597 279.901 214.989 270.654 217.803C268.164 218.578 264.502 219.717 262.102 220.617C264.684 220.708 268.505 220.583 271.098 220.537C291.854 219.888 312.62 217.302 333.115 213.998C338.926 212.984 338.596 204.6 332.705 204.064C308.833 202.299 284.677 201.262 260.805 203.37C273.281 206.548 285.985 208.747 298.745 210.478L298.734 210.467ZM284.484 162.62C275.761 166.835 267.151 171.301 258.781 176.131C256.529 177.453 253.22 179.389 251.081 180.802C253.618 180.301 257.302 179.321 259.827 178.683C279.901 173.351 299.542 166.117 318.75 158.257C324.175 155.956 321.969 147.856 316.101 148.676C292.456 152.367 268.687 156.833 245.907 164.295C258.781 164.568 271.655 163.816 284.472 162.62H284.484ZM254.926 248.824C251.252 248.243 245.85 247.389 242.222 246.956C245.622 248.357 250.752 250.214 254.232 251.501C282.221 261.595 311.017 269.899 339.79 277.441C345.75 278.888 348.639 270.606 343.077 268.02L331.306 262.836C303.761 250.988 275.715 239.562 247.067 230.654C262.659 239.984 278.763 248.448 295.061 256.502C281.732 253.62 268.346 251.011 254.926 248.824ZM287.236 309.908C276.921 302.116 266.549 294.461 256.154 287.033C247.021 280.585 237.912 274.103 228.506 267.985C236.501 275.857 244.792 283.353 253.06 290.895C273.668 309.464 295.277 327.703 316.772 345.281L329.794 355.807C331.727 357.368 334.559 357.288 336.39 355.522C338.38 353.608 338.448 350.43 336.526 348.436C328.895 340.485 321.23 332.556 313.485 324.718C290.193 301.193 266.537 278.022 241.562 256.263C256.177 274.673 271.53 292.433 287.225 309.908H287.236ZM120.475 242.524C118.507 244.142 115.47 246.329 113.412 247.856C101.55 256.423 89.0966 264.112 76.4385 271.403C71.3889 274.308 66.2825 277.122 61.1533 279.879C59.1516 280.972 56.5927 280.562 55.0232 278.774C53.2036 276.7 53.4083 273.533 55.4895 271.711L62.2337 265.787L69.0688 259.965C82.9097 248.459 97.16 237.261 112.491 227.771C104.564 237.717 95.8635 247.013 86.8447 255.978C95.147 252.185 103.563 248.619 112.127 245.418C114.538 244.541 118.075 243.242 120.486 242.513L120.475 242.524ZM142.788 284.618C145.939 280.437 149.032 276.188 151.853 271.688C147.451 274.661 143.311 277.885 139.24 281.166C134.566 284.96 129.971 288.947 125.456 293.037C129.96 282.989 134.042 272.782 137.204 262.187C124.262 278.25 113.821 296.044 104.075 314.158C101.413 319.33 108.044 324.092 112.081 319.979C122.863 308.815 133.417 296.967 142.788 284.607V284.618ZM188.564 290.177C188.815 287.58 189.247 283.786 189.372 281.2C188.291 283.524 186.858 287.09 185.892 289.517C182.355 298.516 179.204 307.698 176.327 316.971C175.633 304.098 174.473 291.225 172.301 278.523C168.286 302.196 167.377 326.404 167.217 350.373C167.274 356.308 175.599 357.299 177.078 351.592C182.002 331.394 186.256 310.877 188.564 290.2V290.177ZM259.52 365.297C249.489 337.249 238.696 309.248 226.197 282.203C224.605 278.854 222.319 273.887 220.625 270.628C221.375 274.206 222.695 279.526 223.593 283.137C226.948 296.34 230.724 309.464 234.761 322.508C225.322 306.958 215.484 291.635 204.839 276.894C216.212 304.691 230.042 331.667 244.246 358.12L250.433 369.409C253.493 374.729 261.476 371.107 259.52 365.297ZM24.1116 168.305C18.2886 169.227 18.4933 177.623 24.3845 178.25C48.2222 180.358 72.367 181.747 96.2729 180.004C83.8423 176.644 71.1728 174.263 58.4351 172.349C67.9202 170.367 77.337 168.1 86.6286 165.423C89.1307 164.682 92.8042 163.6 95.2152 162.734C92.6336 162.609 88.8123 162.677 86.2192 162.677C65.4522 163.019 44.6511 165.309 24.1116 168.305ZM30.6738 220.526C25.1124 222.485 26.8297 230.711 32.7323 230.255C56.5586 228.022 80.5555 225.015 103.756 218.965C90.9276 217.906 78.0307 217.86 65.1679 218.27C74.1412 214.602 82.9893 210.672 91.6441 206.354C93.9756 205.17 97.3875 203.438 99.6052 202.162C97.0463 202.504 93.3046 203.256 90.7457 203.734C70.3881 207.835 50.3376 213.839 30.6851 220.503L30.6738 220.526ZM7.84825 110.832L19.4714 116.345C46.6755 128.945 74.4027 141.157 102.778 150.852C87.4475 141.1 71.5822 132.192 55.5236 123.682C68.7731 126.929 82.0795 129.913 95.4313 132.477C99.082 133.16 104.461 134.163 108.078 134.698C104.723 133.194 99.6393 131.212 96.2047 129.822C68.5115 118.954 39.9541 109.852 11.3966 101.513C5.48267 99.8952 2.36649 108.109 7.84825 110.843V110.832Z" fill="url(#paint0_radial_4251_48710)"/>
<path d="M292.49 107.824L285.723 113.725L278.866 119.512C264.979 130.973 250.695 142.114 235.33 151.558C243.291 141.647 252.025 132.374 261.067 123.443C252.742 127.213 244.315 130.745 235.739 133.912C233.328 134.789 229.791 136.065 227.38 136.794C229.348 135.188 232.407 133.001 234.466 131.485C246.362 122.964 258.838 115.309 271.519 108.063C276.58 105.17 281.697 102.379 286.838 99.6332C288.84 98.5509 291.41 98.961 292.968 100.761C294.776 102.846 294.56 106.001 292.479 107.824H292.49ZM253.481 65.7759C256.165 60.6153 249.546 55.8306 245.497 59.9203C234.682 71.039 224.082 82.8526 214.654 95.1789C211.492 99.3484 208.387 103.586 205.544 108.075C209.957 105.124 214.108 101.912 218.191 98.6421C222.877 94.8599 227.494 90.8954 232.009 86.8171C227.471 96.8421 223.354 107.049 220.147 117.621C233.146 101.615 243.644 83.8437 253.458 65.7645L253.481 65.7759ZM185.039 101.182C189.133 77.5211 190.134 53.3243 190.384 29.3554C190.35 23.4201 182.025 22.3948 180.535 28.1022C175.531 48.2776 171.209 68.7834 168.821 89.4486C168.559 92.046 168.116 95.8396 167.991 98.4256C169.083 96.1016 170.527 92.5473 171.505 90.1208C175.076 81.1324 178.249 71.9618 181.161 62.7C181.809 75.5845 182.923 88.4461 185.05 101.171L185.039 101.182ZM128.652 61.5608C138.034 77.1452 147.815 92.5017 158.403 107.277C147.133 79.435 133.394 52.413 119.292 25.915L113.139 14.6026C110.102 9.28251 102.096 12.8596 104.041 18.681C113.969 46.7739 124.66 74.8098 137.068 101.889C138.649 105.249 140.912 110.216 142.606 113.486C141.867 109.909 140.571 104.589 139.683 100.966C136.374 87.7512 132.644 74.6161 128.663 61.5494L128.652 61.5608ZM131.074 117.895C107.316 94.8029 82.2728 73.1466 56.9111 51.8775C48.461 44.803 39.9313 37.8311 31.3789 30.8819C29.2294 29.1389 26.0905 29.4693 24.3504 31.6224C22.7468 33.6046 22.906 36.4413 24.6233 38.2298L36.201 50.3396C55.5009 70.3099 75.4718 90.3372 95.6702 109.339C103.859 116.949 112.024 124.593 120.531 131.918C113.651 123.044 106.44 114.5 99.2526 105.933C90.9845 96.1928 82.5003 86.4867 73.8796 76.849C92.5767 91.0435 111.547 104.874 131.097 117.906L131.074 117.895ZM298.734 210.467C289.283 212.597 279.901 214.989 270.654 217.803C268.164 218.578 264.502 219.717 262.102 220.617C264.684 220.708 268.505 220.583 271.098 220.537C291.854 219.888 312.62 217.302 333.115 213.998C338.926 212.984 338.596 204.6 332.705 204.064C308.833 202.299 284.677 201.262 260.805 203.37C273.281 206.548 285.985 208.747 298.745 210.478L298.734 210.467ZM284.484 162.62C275.761 166.835 267.151 171.301 258.781 176.131C256.529 177.453 253.22 179.389 251.081 180.802C253.618 180.301 257.302 179.321 259.827 178.683C279.901 173.351 299.542 166.117 318.75 158.257C324.175 155.956 321.969 147.856 316.101 148.676C292.456 152.367 268.687 156.833 245.907 164.295C258.781 164.568 271.655 163.816 284.472 162.62H284.484ZM254.926 248.824C251.252 248.243 245.85 247.389 242.222 246.956C245.622 248.357 250.752 250.214 254.232 251.501C282.221 261.595 311.017 269.899 339.79 277.441C345.75 278.888 348.639 270.606 343.077 268.02L331.306 262.836C303.761 250.988 275.715 239.562 247.067 230.654C262.659 239.984 278.763 248.448 295.061 256.502C281.732 253.62 268.346 251.011 254.926 248.824ZM287.236 309.908C276.921 302.116 266.549 294.461 256.154 287.033C247.021 280.585 237.912 274.103 228.506 267.985C236.501 275.857 244.792 283.353 253.06 290.895C273.668 309.464 295.277 327.703 316.772 345.281L329.794 355.807C331.727 357.368 334.559 357.288 336.39 355.522C338.38 353.608 338.448 350.43 336.526 348.436C328.895 340.485 321.23 332.556 313.485 324.718C290.193 301.193 266.537 278.022 241.562 256.263C256.177 274.673 271.53 292.433 287.225 309.908H287.236ZM120.475 242.524C118.507 244.142 115.47 246.329 113.412 247.856C101.55 256.423 89.0966 264.112 76.4385 271.403C71.3889 274.308 66.2825 277.122 61.1533 279.879C59.1516 280.972 56.5927 280.562 55.0232 278.774C53.2036 276.7 53.4083 273.533 55.4895 271.711L62.2337 265.787L69.0688 259.965C82.9097 248.459 97.16 237.261 112.491 227.771C104.564 237.717 95.8635 247.013 86.8447 255.978C95.147 252.185 103.563 248.619 112.127 245.418C114.538 244.541 118.075 243.242 120.486 242.513L120.475 242.524ZM142.788 284.618C145.939 280.437 149.032 276.188 151.853 271.688C147.451 274.661 143.311 277.885 139.24 281.166C134.566 284.96 129.971 288.947 125.456 293.037C129.96 282.989 134.042 272.782 137.204 262.187C124.262 278.25 113.821 296.044 104.075 314.158C101.413 319.33 108.044 324.092 112.081 319.979C122.863 308.815 133.417 296.967 142.788 284.607V284.618ZM188.564 290.177C188.815 287.58 189.247 283.786 189.372 281.2C188.291 283.524 186.858 287.09 185.892 289.517C182.355 298.516 179.204 307.698 176.327 316.971C175.633 304.098 174.473 291.225 172.301 278.523C168.286 302.196 167.377 326.404 167.217 350.373C167.274 356.308 175.599 357.299 177.078 351.592C182.002 331.394 186.256 310.877 188.564 290.2V290.177ZM259.52 365.297C249.489 337.249 238.696 309.248 226.197 282.203C224.605 278.854 222.319 273.887 220.625 270.628C221.375 274.206 222.695 279.526 223.593 283.137C226.948 296.34 230.724 309.464 234.761 322.508C225.322 306.958 215.484 291.635 204.839 276.894C216.212 304.691 230.042 331.667 244.246 358.12L250.433 369.409C253.493 374.729 261.476 371.107 259.52 365.297ZM24.1116 168.305C18.2886 169.227 18.4933 177.623 24.3845 178.25C48.2222 180.358 72.367 181.747 96.2729 180.004C83.8423 176.644 71.1728 174.263 58.4351 172.349C67.9202 170.367 77.337 168.1 86.6286 165.423C89.1307 164.682 92.8042 163.6 95.2152 162.734C92.6336 162.609 88.8123 162.677 86.2192 162.677C65.4522 163.019 44.6511 165.309 24.1116 168.305ZM30.6738 220.526C25.1124 222.485 26.8297 230.711 32.7323 230.255C56.5586 228.022 80.5555 225.015 103.756 218.965C90.9276 217.906 78.0307 217.86 65.1679 218.27C74.1412 214.602 82.9893 210.672 91.6441 206.354C93.9756 205.17 97.3875 203.438 99.6052 202.162C97.0463 202.504 93.3046 203.256 90.7457 203.734C70.3881 207.835 50.3376 213.839 30.6851 220.503L30.6738 220.526ZM7.84825 110.832L19.4714 116.345C46.6755 128.945 74.4027 141.157 102.778 150.852C87.4475 141.1 71.5822 132.192 55.5236 123.682C68.7731 126.929 82.0795 129.913 95.4313 132.477C99.082 133.16 104.461 134.163 108.078 134.698C104.723 133.194 99.6393 131.212 96.2047 129.822C68.5115 118.954 39.9541 109.852 11.3966 101.513C5.48267 99.8952 2.36649 108.109 7.84825 110.843V110.832Z" fill="black" fill-opacity="0.2"/>
<path d="M292.49 107.824L285.723 113.725L278.866 119.512C264.979 130.973 250.695 142.114 235.33 151.558C243.291 141.647 252.025 132.374 261.067 123.443C252.742 127.213 244.315 130.745 235.739 133.912C233.328 134.789 229.791 136.065 227.38 136.794C229.348 135.188 232.407 133.001 234.466 131.485C246.362 122.964 258.838 115.309 271.519 108.063C276.58 105.17 281.697 102.379 286.838 99.6332C288.84 98.5509 291.41 98.961 292.968 100.761C294.776 102.846 294.56 106.001 292.479 107.824H292.49ZM253.481 65.7759C256.165 60.6153 249.546 55.8306 245.497 59.9203C234.682 71.039 224.082 82.8526 214.654 95.1789C211.492 99.3484 208.387 103.586 205.544 108.075C209.957 105.124 214.108 101.912 218.191 98.6421C222.877 94.8599 227.494 90.8954 232.009 86.8171C227.471 96.8421 223.354 107.049 220.147 117.621C233.146 101.615 243.644 83.8437 253.458 65.7645L253.481 65.7759ZM185.039 101.182C189.133 77.5211 190.134 53.3243 190.384 29.3554C190.35 23.4201 182.025 22.3948 180.535 28.1022C175.531 48.2776 171.209 68.7834 168.821 89.4486C168.559 92.046 168.116 95.8396 167.991 98.4256C169.083 96.1016 170.527 92.5473 171.505 90.1208C175.076 81.1324 178.249 71.9618 181.161 62.7C181.809 75.5845 182.923 88.4461 185.05 101.171L185.039 101.182ZM128.652 61.5608C138.034 77.1452 147.815 92.5017 158.403 107.277C147.133 79.435 133.394 52.413 119.292 25.915L113.139 14.6026C110.102 9.28251 102.096 12.8596 104.041 18.681C113.969 46.7739 124.66 74.8098 137.068 101.889C138.649 105.249 140.912 110.216 142.606 113.486C141.867 109.909 140.571 104.589 139.683 100.966C136.374 87.7512 132.644 74.6161 128.663 61.5494L128.652 61.5608ZM131.074 117.895C107.316 94.8029 82.2728 73.1466 56.9111 51.8775C48.461 44.803 39.9313 37.8311 31.3789 30.8819C29.2294 29.1389 26.0905 29.4693 24.3504 31.6224C22.7468 33.6046 22.906 36.4413 24.6233 38.2298L36.201 50.3396C55.5009 70.3099 75.4718 90.3372 95.6702 109.339C103.859 116.949 112.024 124.593 120.531 131.918C113.651 123.044 106.44 114.5 99.2526 105.933C90.9845 96.1928 82.5003 86.4867 73.8796 76.849C92.5767 91.0435 111.547 104.874 131.097 117.906L131.074 117.895ZM298.734 210.467C289.283 212.597 279.901 214.989 270.654 217.803C268.164 218.578 264.502 219.717 262.102 220.617C264.684 220.708 268.505 220.583 271.098 220.537C291.854 219.888 312.62 217.302 333.115 213.998C338.926 212.984 338.596 204.6 332.705 204.064C308.833 202.299 284.677 201.262 260.805 203.37C273.281 206.548 285.985 208.747 298.745 210.478L298.734 210.467ZM284.484 162.62C275.761 166.835 267.151 171.301 258.781 176.131C256.529 177.453 253.22 179.389 251.081 180.802C253.618 180.301 257.302 179.321 259.827 178.683C279.901 173.351 299.542 166.117 318.75 158.257C324.175 155.956 321.969 147.856 316.101 148.676C292.456 152.367 268.687 156.833 245.907 164.295C258.781 164.568 271.655 163.816 284.472 162.62H284.484ZM254.926 248.824C251.252 248.243 245.85 247.389 242.222 246.956C245.622 248.357 250.752 250.214 254.232 251.501C282.221 261.595 311.017 269.899 339.79 277.441C345.75 278.888 348.639 270.606 343.077 268.02L331.306 262.836C303.761 250.988 275.715 239.562 247.067 230.654C262.659 239.984 278.763 248.448 295.061 256.502C281.732 253.62 268.346 251.011 254.926 248.824ZM287.236 309.908C276.921 302.116 266.549 294.461 256.154 287.033C247.021 280.585 237.912 274.103 228.506 267.985C236.501 275.857 244.792 283.353 253.06 290.895C273.668 309.464 295.277 327.703 316.772 345.281L329.794 355.807C331.727 357.368 334.559 357.288 336.39 355.522C338.38 353.608 338.448 350.43 336.526 348.436C328.895 340.485 321.23 332.556 313.485 324.718C290.193 301.193 266.537 278.022 241.562 256.263C256.177 274.673 271.53 292.433 287.225 309.908H287.236ZM120.475 242.524C118.507 244.142 115.47 246.329 113.412 247.856C101.55 256.423 89.0966 264.112 76.4385 271.403C71.3889 274.308 66.2825 277.122 61.1533 279.879C59.1516 280.972 56.5927 280.562 55.0232 278.774C53.2036 276.7 53.4083 273.533 55.4895 271.711L62.2337 265.787L69.0688 259.965C82.9097 248.459 97.16 237.261 112.491 227.771C104.564 237.717 95.8635 247.013 86.8447 255.978C95.147 252.185 103.563 248.619 112.127 245.418C114.538 244.541 118.075 243.242 120.486 242.513L120.475 242.524ZM142.788 284.618C145.939 280.437 149.032 276.188 151.853 271.688C147.451 274.661 143.311 277.885 139.24 281.166C134.566 284.96 129.971 288.947 125.456 293.037C129.96 282.989 134.042 272.782 137.204 262.187C124.262 278.25 113.821 296.044 104.075 314.158C101.413 319.33 108.044 324.092 112.081 319.979C122.863 308.815 133.417 296.967 142.788 284.607V284.618ZM188.564 290.177C188.815 287.58 189.247 283.786 189.372 281.2C188.291 283.524 186.858 287.09 185.892 289.517C182.355 298.516 179.204 307.698 176.327 316.971C175.633 304.098 174.473 291.225 172.301 278.523C168.286 302.196 167.377 326.404 167.217 350.373C167.274 356.308 175.599 357.299 177.078 351.592C182.002 331.394 186.256 310.877 188.564 290.2V290.177ZM259.52 365.297C249.489 337.249 238.696 309.248 226.197 282.203C224.605 278.854 222.319 273.887 220.625 270.628C221.375 274.206 222.695 279.526 223.593 283.137C226.948 296.34 230.724 309.464 234.761 322.508C225.322 306.958 215.484 291.635 204.839 276.894C216.212 304.691 230.042 331.667 244.246 358.12L250.433 369.409C253.493 374.729 261.476 371.107 259.52 365.297ZM24.1116 168.305C18.2886 169.227 18.4933 177.623 24.3845 178.25C48.2222 180.358 72.367 181.747 96.2729 180.004C83.8423 176.644 71.1728 174.263 58.4351 172.349C67.9202 170.367 77.337 168.1 86.6286 165.423C89.1307 164.682 92.8042 163.6 95.2152 162.734C92.6336 162.609 88.8123 162.677 86.2192 162.677C65.4522 163.019 44.6511 165.309 24.1116 168.305ZM30.6738 220.526C25.1124 222.485 26.8297 230.711 32.7323 230.255C56.5586 228.022 80.5555 225.015 103.756 218.965C90.9276 217.906 78.0307 217.86 65.1679 218.27C74.1412 214.602 82.9893 210.672 91.6441 206.354C93.9756 205.17 97.3875 203.438 99.6052 202.162C97.0463 202.504 93.3046 203.256 90.7457 203.734C70.3881 207.835 50.3376 213.839 30.6851 220.503L30.6738 220.526ZM7.84825 110.832L19.4714 116.345C46.6755 128.945 74.4027 141.157 102.778 150.852C87.4475 141.1 71.5822 132.192 55.5236 123.682C68.7731 126.929 82.0795 129.913 95.4313 132.477C99.082 133.16 104.461 134.163 108.078 134.698C104.723 133.194 99.6393 131.212 96.2047 129.822C68.5115 118.954 39.9541 109.852 11.3966 101.513C5.48267 99.8952 2.36649 108.109 7.84825 110.843V110.832Z" fill="url(#paint1_radial_4251_48710)"/>
</g>
<g filter="url(#filter0_b_4251_48710)">
<path d="M0 0H352V356H0V0Z" fill="url(#paint2_linear_4251_48710)"/>
</g>
<defs>
<filter id="filter0_b_4251_48710" x="-4" y="-4" width="360" height="364" filterUnits="userSpaceOnUse" color-interpolation-filters="sRGB">
<feFlood flood-opacity="0" result="BackgroundImageFix"/>
<feGaussianBlur in="BackgroundImageFix" stdDeviation="2"/>
<feComposite in2="SourceAlpha" operator="in" result="effect1_backgroundBlur_4251_48710"/>
<feBlend mode="normal" in="SourceGraphic" in2="effect1_backgroundBlur_4251_48710" result="shape"/>
</filter>
<radialGradient id="paint0_radial_4251_48710" cx="0" cy="0" r="1" gradientUnits="userSpaceOnUse" gradientTransform="translate(175.526 192) scale(170.526 180)">
<stop offset="0.565" stop-color="#CB2F2F"/>
<stop offset="1" stop-color="#102849"/>
</radialGradient>
<radialGradient id="paint1_radial_4251_48710" cx="0" cy="0" r="1" gradientUnits="userSpaceOnUse" gradientTransform="translate(175.526 192) rotate(133.452) scale(247.95 497.301)">
<stop offset="0.171823" stop-color="#E30613"/>
<stop offset="0.711038" stop-color="#0156E1"/>
</radialGradient>
<linearGradient id="paint2_linear_4251_48710" x1="0" y1="178" x2="352" y2="178" gradientUnits="userSpaceOnUse">
<stop stop-color="white" stop-opacity="0"/>
<stop offset="0.5" stop-color="white"/>
<stop offset="1" stop-color="white" stop-opacity="0"/>
</linearGradient>
</defs>
</svg>
